<svg width="50" height="50" viewBox="0 0 50 50" fill="none" xmlns="http://www.w3.org/2000/svg">
<g id="fluent:history-24-regular">
<path id="Vector" d="M40.6245 25.0001C40.6249 21.9597 39.7382 18.9852 38.0731 16.4412C36.408 13.8973 34.0369 11.8944 31.2504 10.678C28.4639 9.46171 25.383 9.08477 22.3854 9.59344C19.3878 10.1021 16.6038 11.4743 14.3745 13.5418H17.187C17.6014 13.5418 17.9988 13.7064 18.2919 13.9994C18.5849 14.2925 18.7495 14.6899 18.7495 15.1043C18.7495 15.5187 18.5849 15.9161 18.2919 16.2091C17.9988 16.5022 17.6014 16.6668 17.187 16.6668H10.937C10.5226 16.6668 10.1252 16.5022 9.83216 16.2091C9.53914 15.9161 9.37452 15.5187 9.37452 15.1043V8.85428C9.37452 8.43988 9.53914 8.04245 9.83216 7.74943C10.1252 7.4564 10.5226 7.29178 10.937 7.29178C11.3514 7.29178 11.7488 7.4564 12.0419 7.74943C12.3349 8.04245 12.4995 8.43988 12.4995 8.85428V11.0251C15.7921 8.08119 20.0182 6.39408 24.4329 6.26118C28.8477 6.12828 33.1676 7.55812 36.6313 10.2987C40.095 13.0392 42.48 16.9145 43.366 21.2415C44.252 25.5684 43.5821 30.0693 41.4743 33.9506C39.3665 37.832 35.9562 40.8447 31.8445 42.4576C27.7329 44.0706 23.1838 44.1803 18.9991 42.7674C14.8145 41.3546 11.2629 38.5098 8.97046 34.7345C6.67803 30.9593 5.7919 26.496 6.46827 22.1314C6.531 21.7634 6.72356 21.4301 7.011 21.192C7.29844 20.9538 7.66173 20.8266 8.03494 20.8334C8.99327 20.8334 9.68285 21.7459 9.54327 22.6918C9.22846 24.8165 9.35508 26.9832 9.91524 29.0568C10.4754 31.1303 11.457 33.0661 12.7989 34.7433C14.1407 36.4204 15.8139 37.8029 17.714 38.8044C19.6141 39.8059 21.7003 40.4049 23.8423 40.564C25.9843 40.7231 28.136 40.4388 30.1632 39.729C32.1904 39.0192 34.0495 37.899 35.6244 36.4385C37.1992 34.9779 38.4561 33.2084 39.3164 31.2403C40.1767 29.2723 40.622 27.148 40.6245 25.0001ZM26.0412 16.1459C26.0412 15.7315 25.8766 15.3341 25.5835 15.0411C25.2905 14.7481 24.8931 14.5834 24.4787 14.5834C24.0643 14.5834 23.6669 14.7481 23.3738 15.0411C23.0808 15.3341 22.9162 15.7315 22.9162 16.1459V25.5209C22.9162 26.3834 23.6162 27.0834 24.4787 27.0834H29.687C30.1014 27.0834 30.4988 26.9188 30.7919 26.6258C31.0849 26.3328 31.2495 25.9353 31.2495 25.5209C31.2495 25.1065 31.0849 24.7091 30.7919 24.4161C30.4988 24.1231 30.1014 23.9584 29.687 23.9584H26.0412V16.1459Z" fill="#26334D"/>
</g>
</svg>
