<svg width="25" height="25" viewBox="0 0 25 25" fill="none" xmlns="http://www.w3.org/2000/svg">
<g id="arrow-right">
<path id="Vector" opacity="0.4" d="M12.4004 22.71C17.9232 22.71 22.4004 18.2328 22.4004 12.71C22.4004 7.18711 17.9232 2.70996 12.4004 2.70996C6.87754 2.70996 2.40039 7.18711 2.40039 12.71C2.40039 18.2328 6.87754 22.71 12.4004 22.71Z" fill="#0080FF"/>
<path id="Vector_2" d="M16.4304 12.1799L13.4304 9.1799C13.1404 8.8899 12.6604 8.8899 12.3704 9.1799C12.0804 9.4699 12.0804 9.9499 12.3704 10.2399L14.0904 11.9599H8.90039C8.49039 11.9599 8.15039 12.2999 8.15039 12.7099C8.15039 13.1199 8.49039 13.4599 8.90039 13.4599H14.0904L12.3704 15.1799C12.0804 15.4699 12.0804 15.9499 12.3704 16.2399C12.5204 16.3899 12.7104 16.4599 12.9004 16.4599C13.0904 16.4599 13.2804 16.3899 13.4304 16.2399L16.4304 13.2399C16.7204 12.9499 16.7204 12.4699 16.4304 12.1799Z" fill="#0080FF"/>
</g>
</svg>
