<svg width="20" height="21" viewBox="0 0 20 21" fill="none" xmlns="http://www.w3.org/2000/svg">
<g id="material-symbols:arrow-right-alt-rounded">
<path id="Vector" d="M11.083 14.6061C10.9163 14.4395 10.8363 14.2381 10.843 14.002C10.8497 13.7658 10.9366 13.5645 11.1038 13.3978L13.458 11.0436H4.16634C3.93023 11.0436 3.73218 10.9636 3.57218 10.8036C3.41218 10.6436 3.33246 10.4458 3.33301 10.2103C3.33301 9.97417 3.41301 9.77612 3.57301 9.61612C3.73301 9.45612 3.93079 9.3764 4.16634 9.37695H13.458L11.083 7.00195C10.9163 6.83529 10.833 6.63723 10.833 6.40779C10.833 6.17834 10.9163 5.98056 11.083 5.81445C11.2497 5.64779 11.4477 5.56445 11.6772 5.56445C11.9066 5.56445 12.1044 5.64779 12.2705 5.81445L16.083 9.62695C16.1663 9.71029 16.2255 9.80056 16.2605 9.89779C16.2955 9.99501 16.3127 10.0992 16.3122 10.2103C16.3122 10.3214 16.2947 10.4256 16.2597 10.5228C16.2247 10.62 16.1658 10.7103 16.083 10.7936L12.2497 14.627C12.0969 14.7797 11.9061 14.8561 11.6772 14.8561C11.4483 14.8561 11.2502 14.7728 11.083 14.6061Z" fill="#0080FF"/>
</g>
</svg>
