<svg xmlns="http://www.w3.org/2000/svg" width="36" height="36" viewBox="0 0 36 36" fill="none">
  <path d="M32.4002 21.8998L31.8502 21.5998C31.6502 21.4998 31.5502 21.2998 31.6002 21.0998C31.7502 20.1498 31.8502 16.8498 26.7502 15.3498C26.6502 15.2998 26.5502 15.2998 26.4502 15.2998L16.6502 15.3498C16.4502 15.3498 16.2502 15.3998 16.1002 15.4998L10.9502 18.9498C10.8502 18.9998 10.7502 19.0498 10.6502 19.0498C9.7002 18.9998 8.8002 19.0998 7.8502 19.2498C5.1502 19.7998 4.0502 21.2498 3.6502 21.9998C3.5502 22.1498 3.5502 22.3498 3.5502 22.4998C3.6002 23.6998 2.8002 25.0498 4.0002 26.1498L13.7002 26.0998L23.9002 25.8498L31.9502 25.7498C32.4002 25.6998 33.1502 25.0498 33.3502 24.6498C34.2002 23.2998 32.5002 21.9498 32.4002 21.8998Z" fill="#D0CFCE"/>
  <path d="M8.6499 23.0996C7.5499 23.0996 6.6499 23.9996 6.6499 25.0996C6.6499 26.1996 7.5499 27.0996 8.6499 27.0996C9.7499 27.0996 10.6499 26.1996 10.6499 25.0996C10.6499 23.9996 9.7499 23.0996 8.6499 23.0996ZM28.5499 23.0996C27.4499 23.0996 26.5499 23.9996 26.5499 25.0996C26.5499 26.1996 27.4499 27.0996 28.5499 27.0996C29.6499 27.0996 30.5499 26.1996 30.5499 25.0996C30.5499 23.9996 29.6499 23.0996 28.5499 23.0996Z" fill="#9B9B9A"/>
  <path d="M28.0498 19.5498V17.3998C28.0498 16.9498 27.6498 16.5498 27.1998 16.5498H16.5998C16.5498 16.5498 16.4998 16.5498 16.4998 16.5998L12.4998 19.4498C12.3998 19.4998 12.3998 19.6498 12.4498 19.7498C12.4998 19.7998 12.5498 19.8498 12.5998 19.8498C15.3998 19.8498 26.1998 19.7498 27.7998 19.7998C27.9498 19.7998 28.0498 19.6998 28.0498 19.5498C28.0498 19.5998 28.0498 19.5998 28.0498 19.5498Z" fill="#3F3F3F"/>
  <path d="M4.4499 20.1504L6.4499 20.9504L5.3999 22.4004L2.8999 22.4504L4.4499 20.1504Z" fill="#FCEA2B"/>
  <path d="M17.45 14.5996C17.45 14.5996 17.4 13.5496 18.65 13.4996C19.85 13.4496 19.85 14.5996 19.85 14.5996" fill="#92D3F5"/>
  <path d="M17.45 14.6006C17.45 14.6006 17.4 13.5506 18.65 13.5006C19.85 13.4506 19.85 14.6006 19.85 14.6006" stroke="black" stroke-miterlimit="10" stroke-linecap="round" stroke-linejoin="round"/>
  <path d="M23.8 25.4006L13.5 25.6006M4.05 25.6006C3.6 25.5006 3.2 25.3506 3.15 25.1006C3.1 24.6006 3 23.2006 3 22.5506C3 22.3006 3.05 22.0006 3.2 21.8006C3.75 20.8006 5.6 18.4006 10.65 18.6006L15.8 15.1506C16.05 15.0006 16.35 14.9006 16.6 14.9006L26.4 14.8506C26.55 14.8506 26.7 14.8506 26.85 14.9006C27.95 15.2006 32.7 16.9006 32.05 21.2006L32.6 21.5006C32.85 21.6006 33.05 21.8506 33.1 22.1006C33.3 22.8006 33.25 23.5506 33 24.2506" stroke="black" stroke-linecap="round" stroke-linejoin="round"/>
  <path d="M12.4502 19.851L27.5502 19.751V17.501" stroke="black" stroke-linecap="round" stroke-linejoin="round"/>
  <path d="M8.6499 27.6006C10.0306 27.6006 11.1499 26.4813 11.1499 25.1006C11.1499 23.7199 10.0306 22.6006 8.6499 22.6006C7.26919 22.6006 6.1499 23.7199 6.1499 25.1006C6.1499 26.4813 7.26919 27.6006 8.6499 27.6006Z" stroke="black" stroke-linecap="round" stroke-linejoin="round"/>
  <path d="M28.5498 27.6006C29.9305 27.6006 31.0498 26.4813 31.0498 25.1006C31.0498 23.7199 29.9305 22.6006 28.5498 22.6006C27.1691 22.6006 26.0498 23.7199 26.0498 25.1006C26.0498 26.4813 27.1691 27.6006 28.5498 27.6006Z" stroke="black" stroke-linecap="round" stroke-linejoin="round"/>
  <path d="M6.1499 21.3506L5.2499 22.4506L3.3999 22.4006" stroke="black" stroke-linecap="round" stroke-linejoin="round"/>
  <path d="M12.0498 21.6006H25.0498" stroke="black" stroke-miterlimit="10" stroke-linecap="round" stroke-linejoin="round"/>
  <path d="M12.0498 21.5996H25.0498" stroke="#61B2E4" stroke-width="1.05" stroke-miterlimit="10" stroke-linecap="round" stroke-linejoin="round"/>
</svg>