<svg width="25" height="25" viewBox="0 0 25 25" fill="none" xmlns="http://www.w3.org/2000/svg">
<g id="card-pos">
<path id="Vector" d="M4.32953 17.3401C4.13953 17.3401 3.94953 17.2701 3.79953 17.1201C3.50953 16.8301 3.50953 16.3501 3.79953 16.0601L15.7495 4.11008C16.0395 3.82008 16.5195 3.82008 16.8095 4.11008C17.0995 4.40008 17.0995 4.88008 16.8095 5.17008L4.85953 17.1301C4.71953 17.2701 4.51953 17.3401 4.32953 17.3401Z" fill="#0080FF"/>
<path id="Vector_2" d="M11.4995 19.74C11.3095 19.74 11.1195 19.67 10.9695 19.52C10.6795 19.23 10.6795 18.75 10.9695 18.46L12.1695 17.26C12.4595 16.97 12.9395 16.97 13.2295 17.26C13.5195 17.55 13.5195 18.03 13.2295 18.32L12.0295 19.52C11.8895 19.66 11.6995 19.74 11.4995 19.74Z" fill="#0080FF"/>
<path id="Vector_3" d="M14.1909 17.0501C14.0009 17.0501 13.8109 16.9801 13.6609 16.8301C13.3709 16.5401 13.3709 16.0601 13.6609 15.7701L16.0509 13.3801C16.3409 13.0901 16.8209 13.0901 17.1109 13.3801C17.4009 13.6701 17.4009 14.1501 17.1109 14.4401L14.7209 16.8301C14.5809 16.9701 14.3809 17.0501 14.1909 17.0501Z" fill="#0080FF"/>
<path id="Vector_4" d="M11.5013 23.4599C10.5213 23.4599 9.54128 22.8599 8.35128 21.6699L3.44128 16.7599C1.05128 14.3699 1.06128 12.8299 3.47128 10.4199L10.1113 3.77988C12.5213 1.36987 14.0613 1.35987 16.4513 3.74988L21.3613 8.65987C23.7513 11.0499 23.7413 12.5899 21.3313 14.9999L14.6913 21.6399C13.4813 22.8499 12.4913 23.4599 11.5013 23.4599ZM13.3013 3.45988C12.7813 3.45988 12.1213 3.88988 11.1713 4.83988L4.53128 11.4799C3.58128 12.4299 3.15128 13.0899 3.15128 13.5999C3.15128 14.1199 3.55128 14.7499 4.50128 15.6999L9.41128 20.6099C10.3613 21.5599 10.9813 21.9599 11.5013 21.9599C11.5013 21.9599 11.5013 21.9599 11.5113 21.9599C12.0313 21.9599 12.6813 21.5299 13.6313 20.5799L20.2713 13.9399C21.2213 12.9899 21.6513 12.3299 21.6513 11.8199C21.6513 11.2999 21.2513 10.6699 20.3013 9.71988L15.3913 4.80988C14.4513 3.85987 13.8213 3.45988 13.3013 3.45988Z" fill="#0080FF"/>
<path id="Vector_5" d="M22.4004 23.46H2.40039C1.99039 23.46 1.65039 23.12 1.65039 22.71C1.65039 22.3 1.99039 21.96 2.40039 21.96H22.4004C22.8104 21.96 23.1504 22.3 23.1504 22.71C23.1504 23.12 22.8104 23.46 22.4004 23.46Z" fill="#0080FF"/>
</g>
</svg>
