<svg xmlns="http://www.w3.org/2000/svg" width="36" height="36" viewBox="0 0 36 36" fill="none">
  <g clip-path="url(#clip0_238_321)">
    <path d="M2.48786 33.5137C4.89786 35.9237 7.59086 37.1407 10.1759 34.5557C12.0109 32.7207 11.5439 29.2787 9.13286 26.8667C6.72186 24.4567 3.28086 23.9897 1.44486 25.8247C-1.14014 28.4097 0.0768595 31.1017 2.48786 33.5137ZM9.04086 26.9597C10.8489 28.7677 11.1989 31.3497 9.82286 32.7267C7.88486 34.6647 5.86486 33.7517 4.05586 31.9437C2.24686 30.1367 1.33486 28.1177 3.27386 26.1777C4.64986 24.8017 7.23186 25.1517 9.04086 26.9597ZM33.5129 2.48671C31.1029 0.0757132 28.4109 -1.14029 25.8249 1.44471C23.9899 3.27971 24.4569 6.72171 26.8679 9.13271C29.2789 11.5437 32.7189 12.0107 34.5559 10.1747C37.1409 7.58971 35.9239 4.89671 33.5129 2.48671ZM26.9599 9.03971C25.1519 7.23171 24.8019 4.65071 26.1779 3.27371C28.1159 1.33571 30.1359 2.24771 31.9449 4.05571C33.7539 5.86371 34.6659 7.88271 32.7269 9.82171C31.3509 11.1977 28.7689 10.8477 26.9599 9.03971Z" fill="#292F33"/>
    <path d="M18 35C27.3888 35 35 27.3888 35 18C35 8.61116 27.3888 1 18 1C8.61116 1 1 8.61116 1 18C1 27.3888 8.61116 35 18 35Z" fill="#292F33"/>
    <path d="M31.5999 18.0004C31.5999 25.5114 25.5109 31.6004 17.9999 31.6004C10.4889 31.6004 4.3999 25.5114 4.3999 18.0004C4.3999 10.4894 10.4889 4.40039 17.9999 4.40039C25.5109 4.40039 31.5999 10.4894 31.5999 18.0004Z" fill="#FFAC33"/>
    <path d="M19.4449 10.6654L16.9059 8.12637C17.096 7.90533 17.1925 7.61891 17.175 7.32788C17.1574 7.03686 17.0272 6.76413 16.8119 6.56755C16.5965 6.37097 16.3131 6.26601 16.0217 6.27494C15.7303 6.28387 15.4538 6.40598 15.2509 6.61537C14.9809 6.88537 14.8789 7.25837 14.9399 7.60637C14.7044 7.56448 14.4616 7.59885 14.2469 7.70448C14.0323 7.8101 13.8569 7.98146 13.7463 8.19364C13.6358 8.40582 13.5958 8.64774 13.6323 8.8842C13.6687 9.12065 13.7796 9.33932 13.9489 9.50837C14.3639 9.92337 15.0189 9.94137 15.4599 9.57237L17.9989 12.1104L19.4449 10.6654Z" fill="#FFE8B6"/>
    <path d="M27.669 20.3357C28.392 19.6127 30.22 16.5097 27.69 13.9797C25.927 12.2167 24.506 12.3177 21.863 11.6627C20.779 11.3007 19.365 9.99772 19.004 9.63672C18.642 9.99772 18.769 11.3197 18.769 11.3197C18.769 11.3197 17.194 11.4477 16.832 11.8087C17.193 12.1697 18.873 13.7587 19.167 14.5037C19.957 17.0117 19.867 18.2877 21.631 20.0497C24.522 22.9407 26.947 21.0587 27.669 20.3357Z" fill="#C1694F"/>
    <path d="M9.333 16.5C9.333 18.433 12.432 20 10.5 20C10.0404 20 9.58525 19.9095 9.16061 19.7336C8.73597 19.5577 8.35013 19.2999 8.02513 18.9749C7.70012 18.6499 7.44231 18.264 7.26642 17.8394C7.09053 17.4148 7 16.9596 7 16.5C7 16.0404 7.09053 15.5852 7.26642 15.1606C7.44231 14.736 7.70012 14.3501 8.02513 14.0251C8.35013 13.7001 8.73597 13.4423 9.16061 13.2664C9.58525 13.0905 10.0404 13 10.5 13C12.433 13 9.333 14.567 9.333 16.5ZM18.018 25.99C19.617 26.761 22.154 24.823 21.382 26.423C21.011 27.1913 20.3499 27.7808 19.5442 28.0617C18.7386 28.3427 17.8543 28.292 17.086 27.921C16.3177 27.55 15.7282 26.8889 15.4473 26.0832C15.1663 25.2776 15.217 24.3933 15.588 23.625C16.36 22.025 16.419 25.218 18.018 25.99Z" fill="#77B255"/>
    <path d="M15 19C16.1046 19 17 18.1046 17 17C17 15.8954 16.1046 15 15 15C13.8954 15 13 15.8954 13 17C13 18.1046 13.8954 19 15 19Z" fill="#F4900C"/>
    <path d="M24 25C24.5523 25 25 24.5523 25 24C25 23.4477 24.5523 23 24 23C23.4477 23 23 23.4477 23 24C23 24.5523 23.4477 25 24 25Z" fill="#F4900C"/>
    <path d="M11 24C11.5523 24 12 23.5523 12 23C12 22.4477 11.5523 22 11 22C10.4477 22 10 22.4477 10 23C10 23.5523 10.4477 24 11 24Z" fill="#F4900C"/>
  </g>
  <defs>
    <clipPath id="clip0_238_321">
      <rect width="36" height="36" fill="white"/>
    </clipPath>
  </defs>
</svg>