<svg width="44" height="44" viewBox="0 0 44 44" fill="none" xmlns="http://www.w3.org/2000/svg">
<g id="convert-card">
<path id="Vector" d="M41.8906 10.3301H21.8906C21.0706 10.3301 20.3906 9.65008 20.3906 8.83008C20.3906 8.01008 21.0706 7.33008 21.8906 7.33008H41.8906C42.7106 7.33008 43.3906 8.01008 43.3906 8.83008C43.3906 9.67008 42.7106 10.3301 41.8906 10.3301Z" fill="#B4CCFC" fill-opacity="0.3"/>
<path id="Vector_2" d="M37.4501 20.21H26.3502C21.9702 20.21 20.4102 18.67 20.4102 14.31V6.10996C20.4102 1.74996 21.9702 0.209961 26.3502 0.209961H37.4501C41.8301 0.209961 43.3901 1.74996 43.3901 6.10996V14.33C43.3901 18.67 41.8301 20.21 37.4501 20.21ZM26.3301 3.20996C23.6101 3.20996 23.3901 3.42996 23.3901 6.10996V14.33C23.3901 17.01 23.6101 17.23 26.3301 17.23H37.4301C40.1501 17.23 40.3701 17.01 40.3701 14.33V6.10996C40.3701 3.42996 40.1501 3.20996 37.4301 3.20996H26.3301Z" fill="#B4CCFC" fill-opacity="0.3"/>
<path id="Vector_3" d="M21.8906 33.3301H1.89062C1.07063 33.3301 0.390625 32.6501 0.390625 31.8301C0.390625 31.0101 1.07063 30.3301 1.89062 30.3301H21.8906C22.7106 30.3301 23.3906 31.0101 23.3906 31.8301C23.3906 32.6701 22.7106 33.3301 21.8906 33.3301Z" fill="#B4CCFC" fill-opacity="0.3"/>
<path id="Vector_4" d="M17.4501 43.21H6.35016C1.97016 43.21 0.410156 41.67 0.410156 37.31V29.11C0.410156 24.75 1.97016 23.21 6.35016 23.21H17.4501C21.8301 23.21 23.3901 24.75 23.3901 29.11V37.33C23.3901 41.67 21.8301 43.21 17.4501 43.21ZM6.33014 26.21C3.61014 26.21 3.39014 26.43 3.39014 29.11V37.33C3.39014 40.01 3.61014 40.23 6.33014 40.23H17.4301C20.1501 40.23 20.3701 40.01 20.3701 37.33V29.11C20.3701 26.43 20.1501 26.21 17.4301 26.21H6.33014Z" fill="#B4CCFC" fill-opacity="0.3"/>
<path id="Vector_5" d="M27.891 43.2099C27.351 43.2099 26.851 42.9099 26.591 42.4499C26.331 41.9699 26.331 41.4099 26.611 40.9299L28.711 37.4299C29.131 36.7299 30.051 36.4899 30.771 36.9099C31.491 37.3299 31.711 38.2499 31.291 38.9699L30.751 39.8699C36.271 38.5699 40.411 33.6099 40.411 27.6899C40.411 26.8699 41.091 26.1899 41.911 26.1899C42.731 26.1899 43.411 26.8699 43.411 27.6899C43.391 36.2499 36.431 43.2099 27.891 43.2099Z" fill="#B4CCFC" fill-opacity="0.3"/>
<path id="Vector_6" d="M1.89062 17.21C1.07063 17.21 0.390625 16.53 0.390625 15.71C0.390625 7.16996 7.35063 0.209961 15.8906 0.209961C16.4306 0.209961 16.9306 0.509963 17.1906 0.969963C17.4506 1.44996 17.4507 2.00996 17.1707 2.48996L15.0706 5.98996C14.6506 6.68996 13.7306 6.92996 13.0106 6.50996C12.2906 6.08996 12.0706 5.16996 12.4906 4.44996L13.0306 3.54996C7.51064 4.84996 3.37061 9.80996 3.37061 15.73C3.39061 16.53 2.71062 17.21 1.89062 17.21Z" fill="#B4CCFC" fill-opacity="0.3"/>
</g>
</svg>
