<svg width="18" height="10" viewBox="0 0 18 10" fill="none" xmlns="http://www.w3.org/2000/svg">
<path d="M0.0497957 1.3102C0.00728815 1.18325 -0.00929733 1.04906 0.00102262 0.915589C0.0113426 0.782114 0.0483579 0.65207 0.109874 0.533167C0.17139 0.414265 0.256154 0.308924 0.35914 0.223392C0.462127 0.137859 0.581239 0.0738758 0.709414 0.0352357C0.83759 -0.00340447 0.972219 -0.0159147 1.10532 -0.00155373C1.23842 0.0128072 1.36728 0.0537469 1.48427 0.118839C1.60125 0.18393 1.70397 0.271849 1.78634 0.377381C1.86871 0.482912 1.92906 0.603909 1.9638 0.733197C4.0498 7.7192 13.9458 7.7202 16.0338 0.737197C16.0712 0.61126 16.1331 0.493926 16.2159 0.391897C16.2986 0.289869 16.4007 0.205142 16.5162 0.142556C16.6317 0.0799688 16.7584 0.0407478 16.8891 0.0271314C17.0198 0.0135149 17.1519 0.0257697 17.2778 0.0631965C17.4037 0.100623 17.5211 0.162489 17.6231 0.245261C17.7251 0.328034 17.8098 0.430091 17.8724 0.545607C17.935 0.661123 17.9742 0.787835 17.9879 0.918509C18.0015 1.04918 17.9892 1.18126 17.9518 1.3072C17.588 2.55838 16.9709 3.72144 16.1388 4.7242L17.4138 6.0002C17.596 6.1888 17.6967 6.4414 17.6945 6.7036C17.6922 6.9658 17.587 7.21661 17.4016 7.40202C17.2162 7.58742 16.9654 7.69259 16.7032 7.69487C16.441 7.69715 16.1884 7.59635 15.9998 7.4142L14.6888 6.1032C13.9813 6.63671 13.1997 7.06421 12.3688 7.3722L12.7258 8.7072C12.7639 8.83525 12.7759 8.96963 12.7612 9.10241C12.7465 9.23519 12.7053 9.36368 12.6401 9.48029C12.5749 9.59689 12.487 9.69925 12.3816 9.78132C12.2762 9.86339 12.1554 9.92351 12.0264 9.95812C11.8974 9.99274 11.7627 10.0011 11.6304 9.98285C11.498 9.96456 11.3707 9.91993 11.2559 9.85161C11.1411 9.78329 11.0411 9.69266 10.9619 9.58507C10.8827 9.47748 10.8259 9.35512 10.7948 9.2252L10.4308 7.8682C9.4838 8.0082 8.5158 8.0082 7.5688 7.8682L7.2048 9.2252C7.17368 9.35512 7.11684 9.47748 7.03765 9.58507C6.95845 9.69266 6.8585 9.78329 6.7437 9.85161C6.6289 9.91993 6.50157 9.96456 6.36923 9.98285C6.2369 10.0011 6.10224 9.99274 5.97321 9.95812C5.84418 9.92351 5.72339 9.86339 5.61797 9.78132C5.51256 9.69925 5.42466 9.59689 5.35947 9.48029C5.29427 9.36368 5.2531 9.23519 5.23839 9.10241C5.22367 8.96963 5.23571 8.83525 5.2738 8.7072L5.6308 7.3722C4.79985 7.06387 4.01829 6.63604 3.3108 6.1022L2.0008 7.4142C1.81329 7.60197 1.55887 7.70757 1.2935 7.70775C1.02814 7.70794 0.773569 7.6027 0.585796 7.4152C0.398022 7.22769 0.292427 6.97327 0.29224 6.7079C0.292052 6.44254 0.397288 6.18797 0.584796 6.0002L1.8598 4.7252C1.0758 3.7892 0.449796 2.6512 0.0477958 1.3112L0.0497957 1.3102Z" fill="#74767E"/>
</svg>
