<svg width="15" height="9" viewBox="0 0 15 9" fill="none" xmlns="http://www.w3.org/2000/svg">
<path d="M9.83757 4.65899C9.83757 5.14638 9.60661 5.61381 9.19549 5.95844C8.78436 6.30308 8.22676 6.49669 7.64535 6.49669C7.06394 6.49669 6.50633 6.30308 6.09521 5.95844C5.68409 5.61381 5.45313 5.14638 5.45312 4.65899C5.45313 4.1716 5.68409 3.70418 6.09521 3.35954C6.50633 3.0149 7.06394 2.82129 7.64535 2.82129C8.22676 2.82129 8.78436 3.0149 9.19549 3.35954C9.60661 3.70418 9.83757 4.1716 9.83757 4.65899Z" fill="#0080FF"/>
<path d="M0.629883 4.65916C0.629883 4.65916 3.26055 0.616211 7.645 0.616211C12.0295 0.616211 14.6601 4.65916 14.6601 4.65916C14.6601 4.65916 12.0295 8.7021 7.645 8.7021C3.26055 8.7021 0.629883 4.65916 0.629883 4.65916ZM7.645 7.23194C8.45898 7.23194 9.23962 6.96088 9.81519 6.47839C10.3908 5.9959 10.7141 5.3415 10.7141 4.65916C10.7141 3.97681 10.3908 3.32241 9.81519 2.83992C9.23962 2.35743 8.45898 2.08637 7.645 2.08637C6.83102 2.08637 6.05038 2.35743 5.47481 2.83992C4.89924 3.32241 4.57589 3.97681 4.57589 4.65916C4.57589 5.3415 4.89924 5.9959 5.47481 6.47839C6.05038 6.96088 6.83102 7.23194 7.645 7.23194Z" fill="#0080FF"/>
</svg>
