<svg width="24" height="25" viewBox="0 0 24 25" fill="none" xmlns="http://www.w3.org/2000/svg">
<g id="folder-open">
<path id="Vector" d="M20.5 12.7203C20.09 12.7203 19.75 12.3803 19.75 11.9703V10.1803C19.75 7.20027 19.23 6.68027 16.25 6.68027H13.7C12.57 6.68027 12.18 6.28027 11.75 5.71027L10.46 4.00027C10.02 3.42027 9.92 3.28027 9.02 3.28027H7.75C4.77 3.28027 4.25 3.80027 4.25 6.78027V11.9303C4.25 12.3403 3.91 12.6803 3.5 12.6803C3.09 12.6803 2.75 12.3403 2.75 11.9303V6.78027C2.75 2.95027 3.92 1.78027 7.75 1.78027H9.03C10.57 1.78027 11.05 2.28027 11.67 3.10027L12.95 4.80027C13.22 5.16027 13.24 5.18027 13.71 5.18027H16.26C20.09 5.18027 21.26 6.35027 21.26 10.1803V11.9703C21.25 12.3803 20.91 12.7203 20.5 12.7203Z" fill="#26334D"/>
<path id="Vector_2" d="M14.5697 18.25H9.42969C9.01969 18.25 8.67969 17.91 8.67969 17.5C8.67969 17.09 9.01969 16.75 9.42969 16.75H14.5697C14.9797 16.75 15.3197 17.09 15.3197 17.5C15.3197 17.91 14.9897 18.25 14.5697 18.25Z" fill="#26334D"/>
<path id="Vector_3" d="M18.29 23.25H5.70995C2.30995 23.25 2.12995 21.38 1.97995 19.87L1.57995 14.86C1.48995 13.89 1.76995 12.92 2.38995 12.14C3.12995 11.24 4.17995 10.75 5.30995 10.75H18.69C19.8 10.75 20.8499 11.24 21.5599 12.09L21.7299 12.32C22.2699 13.06 22.51 13.96 22.42 14.87L22.02 19.86C21.87 21.38 21.69 23.25 18.29 23.25ZM5.30995 12.25C4.63995 12.25 3.99995 12.55 3.57995 13.07L3.50995 13.14C3.18995 13.55 3.01995 14.13 3.07995 14.73L3.47995 19.74C3.61995 21.2 3.67995 21.75 5.70995 21.75H18.29C20.33 21.75 20.38 21.2 20.52 19.73L20.92 14.72C20.98 14.13 20.81 13.54 20.42 13.08L20.32 12.96C19.87 12.49 19.3 12.25 18.68 12.25H5.30995Z" fill="#26334D"/>
</g>
</svg>
