<svg xmlns="http://www.w3.org/2000/svg" width="36" height="36" viewBox="0 0 36 36" fill="none">
  <path d="M3.96484 30.4712V28.4922C3.96484 25.9952 6.46934 23.9922 8.96484 23.9922C11.9648 26.4922 14.9648 26.4922 17.9648 23.9922C20.4623 23.9922 22.9648 25.9952 22.9648 28.4922V30.4712" fill="#92D3F5"/>
  <path d="M28.9119 19.9676C29.1688 20.348 29.3159 20.7918 29.3373 21.2503C29.3586 21.7088 29.2533 22.1644 29.0329 22.567C28.8125 22.9696 28.4855 23.3038 28.0877 23.5329C27.69 23.762 27.2368 23.8772 26.778 23.8658C26.3191 23.8544 25.8722 23.7169 25.4863 23.4684C25.1004 23.2199 24.7904 22.8699 24.5902 22.4568C24.39 22.0438 24.3075 21.5836 24.3515 21.1267C24.3955 20.6698 24.5645 20.2338 24.8399 19.8666L24.5899 19.4921L24.9339 19.2111L23.5589 17.6796L22.8089 15.8671L22.7119 13.7031L23.9984 14.3046L28.8404 19.2421C28.8404 19.2421 29.3714 19.7101 29.3404 19.8671" fill="#9B9B9A"/>
  <path d="M26.8403 15.8672C26.8404 16.0351 26.8574 16.2026 26.8908 16.3672L18.9658 16.4922C18.9658 16.4922 19.3408 18.3672 20.8408 18.3672H29.3408C29.8353 18.3672 30.3186 18.2206 30.7297 17.9459C31.1409 17.6712 31.4613 17.2807 31.6505 16.8239C31.8397 16.3671 31.8892 15.8644 31.7928 15.3795C31.6963 14.8945 31.4582 14.4491 31.1086 14.0994C30.759 13.7498 30.3135 13.5117 29.8285 13.4152C29.3436 13.3188 28.8409 13.3683 28.3841 13.5575C27.9273 13.7467 27.5368 14.0671 27.2621 14.4783C26.9874 14.8894 26.8403 15.3727 26.8403 15.8672Z" fill="#D0CFCE"/>
  <path d="M7.93337 15.4915C8.24787 19.9805 10.4019 22.4915 13.4334 22.4915C16.4019 22.4915 18.9654 19.9915 18.9654 15.4915C18.9777 14.6322 18.8072 13.78 18.4654 12.9915C17.7211 11.7705 16.8731 10.6157 15.9309 9.54004C13.4802 11.4129 10.8949 13.1027 8.19587 14.5955C7.95487 15.0355 7.77837 13.275 7.93337 15.4915Z" fill="#FCEA2B"/>
  <path d="M25.6413 23.5603C24.2483 23.8158 24.5908 19.4913 24.5908 19.4913L24.9343 19.2103L24.2173 18.3743C23.1723 18.2055 22.1122 18.1506 21.0553 18.2103C19.4663 18.3253 19.3023 16.5393 19.3023 16.5393L22.5953 16.3593C21.8593 14.7243 22.0903 14.3983 21.9273 11.3828C21.9408 9.5363 18.4893 7.1828 16.6493 7.0283C16.5834 7.02386 16.5191 7.00641 16.4599 6.97698C16.4008 6.94755 16.3481 6.9067 16.3048 6.8568C16.2583 6.8068 15.1008 5.5293 12.6833 5.5293C9.58332 5.5293 6.96282 7.2203 6.31182 9.6423C6.04473 10.6484 5.94923 11.6924 6.02932 12.7303C6.13132 13.7396 6.00134 14.7589 5.64932 15.7103C5.52524 16.0886 5.3357 16.4421 5.08932 16.7548C3.20332 18.9648 4.60232 23.9063 4.50582 23.7598C5.06729 24.2692 5.67567 24.7244 6.32282 25.1193C7.10097 24.5274 8.0294 24.1654 9.00282 24.0743C12.1078 26.5808 15.2508 26.5808 18.3528 24.0743C19.1103 24.1301 19.8381 24.3917 20.4578 24.8308C20.4578 24.8308 22.8053 26.3603 23.2588 27.7958C23.2588 27.7958 26.1468 27.8778 26.9623 24.2873L25.6413 23.5603ZM13.8023 22.5398C7.96232 22.7998 7.94032 14.9898 7.94032 14.9898C8.62482 13.7748 16.0158 9.8463 16.0158 9.8463C17.4036 10.8557 18.3886 12.3243 18.7958 13.9913C18.7958 13.9913 19.6423 22.2798 13.8023 22.5398Z" fill="#F1B31C"/>
  <path d="M29.3408 16.8672C29.8931 16.8672 30.3408 16.4195 30.3408 15.8672C30.3408 15.3149 29.8931 14.8672 29.3408 14.8672C28.7885 14.8672 28.3408 15.3149 28.3408 15.8672C28.3408 16.4195 28.7885 16.8672 29.3408 16.8672Z" fill="black"/>
  <path d="M3.96484 29.9922V28.4922C3.96484 25.9952 6.46934 23.9922 8.96484 23.9922C11.9648 26.4922 14.9648 26.4922 17.9648 23.9922C20.4623 23.9922 22.9648 25.9952 22.9648 28.4922V29.9922" stroke="black" stroke-linecap="round" stroke-linejoin="round"/>
  <path d="M16.4023 14.9922C16.4023 15.19 16.3437 15.3833 16.2338 15.5478C16.1239 15.7122 15.9678 15.8404 15.785 15.9161C15.6023 15.9918 15.4012 16.0116 15.2073 15.973C15.0133 15.9344 14.8351 15.8391 14.6952 15.6993C14.5554 15.5594 14.4601 15.3813 14.4216 15.1873C14.383 14.9933 14.4028 14.7922 14.4785 14.6095C14.5542 14.4268 14.6823 14.2706 14.8468 14.1607C15.0112 14.0508 15.2046 13.9922 15.4023 13.9922C15.6676 13.9922 15.9219 14.0975 16.1094 14.2851C16.297 14.4726 16.4023 14.727 16.4023 14.9922ZM12.4023 14.9922C12.4023 15.19 12.3437 15.3833 12.2338 15.5478C12.1239 15.7122 11.9678 15.8404 11.785 15.9161C11.6023 15.9918 11.4012 16.0116 11.2073 15.973C11.0133 15.9344 10.8351 15.8391 10.6952 15.6993C10.5554 15.5594 10.4601 15.3813 10.4216 15.1873C10.383 14.9933 10.4028 14.7922 10.4785 14.6095C10.5542 14.4268 10.6823 14.2706 10.8468 14.1607C11.0112 14.0508 11.2046 13.9922 11.4023 13.9922C11.6676 13.9922 11.9219 14.0975 12.1095 14.2851C12.297 14.4726 12.4023 14.727 12.4023 14.9922Z" fill="black"/>
  <path d="M11.9648 18.9922C12.4288 19.2311 12.943 19.3557 13.4648 19.3557C13.9867 19.3557 14.5009 19.2311 14.9648 18.9922M28.9118 19.9677C29.1687 20.3481 29.3159 20.7919 29.3372 21.2504C29.3585 21.7089 29.2532 22.1645 29.0328 22.5671C28.8124 22.9697 28.4854 23.3039 28.0877 23.533C27.6899 23.7621 27.2368 23.8772 26.7779 23.8659C26.319 23.8545 25.8722 23.717 25.4863 23.4685C25.1004 23.2199 24.7903 22.8699 24.5902 22.4569C24.39 22.0438 24.3074 21.5836 24.3514 21.1267C24.3955 20.6698 24.5645 20.2339 24.8398 19.8667M26.8398 15.8672C26.84 16.0351 26.8569 16.2026 26.8903 16.3672L18.9653 16.4922C18.9653 16.4922 19.3403 18.3672 20.8403 18.3672H29.3403C29.8348 18.3672 30.3181 18.2206 30.7293 17.9459C31.1404 17.6712 31.4608 17.2807 31.65 16.8239C31.8393 16.3671 31.8888 15.8644 31.7923 15.3795C31.6958 14.8945 31.4577 14.4491 31.1081 14.0994C30.7585 13.7498 30.313 13.5117 29.8281 13.4152C29.3431 13.3188 28.8404 13.3683 28.3836 13.5575C27.9268 13.7467 27.5364 14.0671 27.2617 14.4783C26.987 14.8894 26.8398 15.3727 26.8398 15.8672Z" stroke="black" stroke-linecap="round" stroke-linejoin="round"/>
  <path d="M22.2051 13.3613C22.3396 13.417 22.4656 13.4916 22.5791 13.5828C22.6256 13.62 22.67 13.6597 22.7121 13.7018L23.9986 14.9888" stroke="black" stroke-linecap="round" stroke-linejoin="round"/>
  <path d="M26.8408 22.3672C27.3931 22.3672 27.8408 21.9195 27.8408 21.3672C27.8408 20.8149 27.3931 20.3672 26.8408 20.3672C26.2885 20.3672 25.8408 20.8149 25.8408 21.3672C25.8408 21.9195 26.2885 22.3672 26.8408 22.3672Z" fill="black"/>
  <path d="M4.84093 23.4025C2.97993 20.474 4.52693 18.3625 5.43093 16.04C6.24893 13.94 5.32643 12.8145 6.07643 10.023C6.81643 7.27304 9.71543 5.54004 12.9314 5.54004C15.6314 5.54004 16.9314 7.04004 16.9314 7.04004C19.0154 7.22704 21.4449 8.89154 21.9269 11.383C22.1269 12.5005 21.9934 14.471 22.7119 16.1815" stroke="black" stroke-linecap="round" stroke-linejoin="round"/>
  <path d="M7.93115 15.54C7.93115 19.54 10.4312 22.54 13.4312 22.54C16.4312 22.54 18.9312 19.54 18.9312 15.54C18.9312 13.04 17.9312 11.54 15.9312 9.54004C13.9312 11.54 7.93115 14.04 7.93115 15.04V15.54Z" stroke="black" stroke-linejoin="round"/>
  <path d="M26.6516 23.9922C26.4563 24.7411 26.1129 25.4433 25.6416 26.0572" stroke="black" stroke-linecap="round" stroke-linejoin="round"/>
</svg>