<svg width="43" height="48" viewBox="0 0 43 48" fill="none" xmlns="http://www.w3.org/2000/svg">
<path d="M17.4502 36C16.9544 36 16.5385 35.808 16.2025 35.424C15.8665 35.04 15.699 34.5653 15.7002 34C15.7002 33.4333 15.8682 32.958 16.2042 32.574C16.5402 32.19 16.9555 31.9987 17.4502 32H35.4502C35.946 32 36.3619 32.192 36.6979 32.576C37.0339 32.96 37.2014 33.4347 37.2002 34C37.2002 34.5667 37.0322 35.042 36.6962 35.426C36.3602 35.81 35.9449 36.0013 35.4502 36H17.4502ZM27.4502 26C26.9544 26 26.5385 25.808 26.2025 25.424C25.8665 25.04 25.699 24.5653 25.7002 24C25.7002 23.4333 25.8682 22.958 26.2042 22.574C26.5402 22.19 26.9555 21.9987 27.4502 22H35.4502C35.946 22 36.3619 22.192 36.6979 22.576C37.0339 22.96 37.2014 23.4347 37.2002 24C37.2002 24.5667 37.0322 25.042 36.6962 25.426C36.3602 25.81 35.9449 26.0013 35.4502 26H27.4502ZM7.4502 16C6.95437 16 6.53845 15.808 6.20245 15.424C5.86645 15.04 5.69903 14.5653 5.7002 14C5.7002 13.4333 5.8682 12.958 6.2042 12.574C6.5402 12.19 6.95553 11.9987 7.4502 12H35.4502C35.946 12 36.3619 12.192 36.6979 12.576C37.0339 12.96 37.2014 13.4347 37.2002 14C37.2002 14.5667 37.0322 15.042 36.6962 15.426C36.3602 15.81 35.9449 16.0013 35.4502 16H7.4502Z" fill="#0080FF"/>
</svg>
