<svg xmlns="http://www.w3.org/2000/svg" width="36" height="36" viewBox="0 0 36 36" fill="none">
  <path d="M17.0202 17.4199H27.3502C27.5933 17.4199 27.8264 17.5165 27.9983 17.6884C28.1702 17.8602 28.2667 18.0934 28.2667 18.3364V21.4164C28.2667 21.6595 28.1702 21.8926 27.9983 22.0645C27.8264 22.2364 27.5933 22.3329 27.3502 22.3329H17.6152C17.3722 22.3329 17.139 22.2364 16.9672 22.0645C16.7953 21.8926 16.6987 21.6595 16.6987 21.4164V17.7454C16.6987 17.7027 16.7072 17.6604 16.7235 17.6209C16.7399 17.5814 16.7638 17.5455 16.7941 17.5153C16.8243 17.485 16.8602 17.4611 16.8997 17.4447C16.9392 17.4283 16.9815 17.4199 17.0242 17.4199H17.0202Z" fill="#B1CC33"/>
  <path d="M17.9448 24.8955V27.5175H27.3538L27.3463 26.21L28.2738 24.8875L27.3538 24.8955H25.7278V22.334H19.4878V24.8955H17.9448Z" fill="#5C9E31"/>
  <path d="M14.81 29.9539C16.9136 29.9539 18.619 28.2486 18.619 26.1449C18.619 24.0413 16.9136 22.3359 14.81 22.3359C12.7063 22.3359 11.001 24.0413 11.001 26.1449C11.001 28.2486 12.7063 29.9539 14.81 29.9539Z" fill="#D0CFCE"/>
  <path d="M29.5398 29.9566C30.9379 29.9566 32.0713 28.8232 32.0713 27.4251C32.0713 26.0269 30.9379 24.8936 29.5398 24.8936C28.1417 24.8936 27.0083 26.0269 27.0083 27.4251C27.0083 28.8232 28.1417 29.9566 29.5398 29.9566Z" fill="#D0CFCE"/>
  <path d="M3.9751 3.97852C3.9751 3.97852 13.6801 6.72652 16.5951 17.1585M26.6601 27.515H17.9451M16.5801 17.21H27.1051C27.3528 17.21 27.5904 17.3086 27.7655 17.4842C27.9407 17.6597 28.0391 17.8978 28.0391 18.146V21.29C28.0391 21.5383 27.9407 21.7763 27.7655 21.9519C27.5904 22.1274 27.3528 22.226 27.1051 22.226H17.1851C17.0624 22.226 16.941 22.2018 16.8277 22.1548C16.7144 22.1077 16.6114 22.0388 16.5247 21.9519C16.4379 21.865 16.3691 21.7618 16.3222 21.6482C16.2753 21.5346 16.2511 21.4129 16.2511 21.29V17.543C16.2511 17.4548 16.2861 17.3703 16.3483 17.3079C16.4106 17.2455 16.495 17.2105 16.5831 17.2105L16.5801 17.21Z" stroke="black" stroke-linecap="round" stroke-linejoin="round"/>
  <path d="M17.9893 24.8554H19.089V22.2402H25.4554V24.8554H27.1129L28.1584 24.8476V24.9174" stroke="black" stroke-width="1.00007" stroke-linecap="round" stroke-linejoin="round"/>
  <path d="M14.3249 30.0026C16.4688 30.0026 18.2069 28.2618 18.2069 26.1146C18.2069 23.9673 16.4688 22.2266 14.3249 22.2266C12.1809 22.2266 10.4429 23.9673 10.4429 26.1146C10.4429 28.2618 12.1809 30.0026 14.3249 30.0026Z" stroke="black" stroke-linecap="round" stroke-linejoin="round"/>
  <path d="M29.3398 30.005C30.8227 30.005 32.0248 28.8008 32.0248 27.3155C32.0248 25.8301 30.8227 24.626 29.3398 24.626C27.8569 24.626 26.6548 25.8301 26.6548 27.3155C26.6548 28.8008 27.8569 30.005 29.3398 30.005Z" stroke="black" stroke-linecap="round" stroke-linejoin="round"/>
  <path d="M25.552 15.3496H23.3905C23.0589 15.3496 22.79 15.6185 22.79 15.9501V16.6131C22.79 16.9448 23.0589 17.2136 23.3905 17.2136H25.552C25.8837 17.2136 26.1525 16.9448 26.1525 16.6131V15.9501C26.1525 15.6185 25.8837 15.3496 25.552 15.3496Z" fill="black"/>
</svg>