<svg xmlns="http://www.w3.org/2000/svg" width="25" height="24" viewBox="0 0 25 24" fill="none">
  <g clip-path="url(#clip0_401_3864)">
    <path d="M22.3235 0H1.87197C0.892285 0 0.100098 0.773438 0.100098 1.72969V22.2656C0.100098 23.2219 0.892285 24 1.87197 24H22.3235C23.3032 24 24.1001 23.2219 24.1001 22.2703V1.72969C24.1001 0.773438 23.3032 0 22.3235 0ZM7.22041 20.4516H3.65791V8.99531H7.22041V20.4516ZM5.43916 7.43438C4.29541 7.43438 3.37197 6.51094 3.37197 5.37187C3.37197 4.23281 4.29541 3.30937 5.43916 3.30937C6.57822 3.30937 7.50166 4.23281 7.50166 5.37187C7.50166 6.50625 6.57822 7.43438 5.43916 7.43438ZM20.5517 20.4516H16.9938V14.8828C16.9938 13.5562 16.9704 11.8453 15.1423 11.8453C13.2907 11.8453 13.0095 13.2937 13.0095 14.7891V20.4516H9.45635V8.99531H12.8688V10.5609H12.9157C13.3892 9.66094 14.5517 8.70938 16.2813 8.70938C19.886 8.70938 20.5517 11.0813 20.5517 14.1656V20.4516Z" fill="#0080FF"/>
  </g>
  <defs>
    <clipPath id="clip0_401_3864">
      <rect width="24" height="24" fill="white" transform="translate(0.100098)"/>
    </clipPath>
  </defs>
</svg>