<svg width="85" height="85" viewBox="0 0 85 85" fill="none" xmlns="http://www.w3.org/2000/svg">
<path id="Vector" d="M42.5 57.5L57.5 42.5M57.5 42.5L42.5 27.5M57.5 42.5H2.5M27.5 18.745V18.5C27.5 12.9 27.5 10.1 28.59 7.96C29.55 6.075 31.075 4.55 32.96 3.59C35.1 2.5 37.9 2.5 43.5 2.5H66.5C72.1 2.5 74.9 2.5 77.035 3.59C78.92 4.55 80.45 6.075 81.41 7.96C82.5 10.095 82.5 12.895 82.5 18.485V66.52C82.5 72.11 82.5 74.905 81.41 77.04C80.4494 78.9219 78.918 80.4516 77.035 81.41C74.9 82.5 72.105 82.5 66.515 82.5H43.485C37.895 82.5 35.095 82.5 32.96 81.41C31.0785 80.4513 29.5487 78.9215 28.59 77.04C27.5 74.9 27.5 72.1 27.5 66.5V66.25" stroke="#0080FF" stroke-width="4" stroke-linecap="round" stroke-linejoin="round"/>
</svg>
