<svg width="22" height="22" viewBox="0 0 22 22" fill="none" xmlns="http://www.w3.org/2000/svg">
<g id="messages-3">
<path id="Vector" d="M15.7008 18.0049C15.3908 18.0049 15.0808 17.9149 14.8108 17.7349L13.8508 17.1049C13.5808 16.9249 13.4508 16.5849 13.5408 16.2749C13.6108 16.0449 13.6408 15.7749 13.6408 15.4749V11.4048C13.6408 9.77485 12.6208 8.75488 10.9908 8.75488H4.20078C4.08078 8.75488 3.97078 8.7649 3.86078 8.7749C3.65078 8.7849 3.45079 8.71489 3.29079 8.57489C3.13079 8.43489 3.05078 8.2349 3.05078 8.0249V5.25488C3.05078 2.31488 5.11078 0.254883 8.05078 0.254883H16.5508C19.4908 0.254883 21.5508 2.31488 21.5508 5.25488V10.3549C21.5508 11.8049 21.0608 13.0848 20.1608 13.9648C19.4408 14.6948 18.4408 15.1649 17.3008 15.3049V16.4149C17.3008 17.0149 16.9708 17.5549 16.4508 17.8349C16.2108 17.9449 15.9508 18.0049 15.7008 18.0049ZM15.1008 16.1249L15.7508 16.4949C15.8108 16.4649 15.8108 16.4148 15.8108 16.4048V14.5948C15.8108 14.1848 16.1508 13.8448 16.5608 13.8448C17.6108 13.8448 18.5008 13.5149 19.1108 12.8949C19.7408 12.2749 20.0608 11.3948 20.0608 10.3448V5.24487C20.0608 3.11487 18.6908 1.74487 16.5608 1.74487H8.06078C5.93078 1.74487 4.56078 3.11487 4.56078 5.24487V7.24487H11.0008C13.4408 7.24487 15.1508 8.9549 15.1508 11.3949V15.4648C15.1408 15.6948 15.1308 15.9149 15.1008 16.1249Z" fill="#0080FF"/>
<path id="Vector_2" d="M4.87079 21.7451C4.65079 21.7451 4.42078 21.6951 4.21078 21.5851C3.74078 21.3351 3.45078 20.8551 3.45078 20.3151V19.5551C2.57078 19.4151 1.79078 19.0451 1.21078 18.4651C0.450785 17.7051 0.0507812 16.6651 0.0507812 15.4651V11.3951C0.0507812 9.13514 1.53077 7.47514 3.73077 7.26514C3.89077 7.25514 4.04078 7.24512 4.20078 7.24512H10.9908C13.4308 7.24512 15.1408 8.95514 15.1408 11.3951V15.4651C15.1408 15.9051 15.0908 16.3151 14.9808 16.6851C14.5308 18.4851 13.0008 19.6151 10.9908 19.6151H8.50078L5.67078 21.4951C5.43078 21.6651 5.15079 21.7451 4.87079 21.7451ZM4.20078 8.74512C4.08078 8.74512 3.97078 8.75514 3.86078 8.76514C2.42078 8.89514 1.55078 9.88514 1.55078 11.3951V15.4651C1.55078 16.2651 1.80078 16.9351 2.27078 17.4051C2.73078 17.8651 3.40078 18.1151 4.20078 18.1151C4.61077 18.1151 4.95078 18.4551 4.95078 18.8651V20.1751L7.85078 18.2451C7.97078 18.1651 8.12078 18.1151 8.27078 18.1151H10.9908C12.3108 18.1151 13.2408 17.4551 13.5308 16.2951C13.6008 16.0451 13.6408 15.7651 13.6408 15.4651V11.3951C13.6408 9.76514 12.6208 8.74512 10.9908 8.74512H4.20078Z" fill="#0080FF"/>
</g>
</svg>
