<svg width="25" height="25" viewBox="0 0 25 25" fill="none" xmlns="http://www.w3.org/2000/svg">
<g id="money-send">
<path id="Vector" d="M13.4504 16.9602H11.5704C10.2404 16.9602 9.15039 15.8402 9.15039 14.4602C9.15039 14.0502 9.49039 13.7102 9.90039 13.7102C10.3104 13.7102 10.6504 14.0502 10.6504 14.4602C10.6504 15.0102 11.0604 15.4602 11.5704 15.4602H13.4504C13.8404 15.4602 14.1504 15.1102 14.1504 14.6802C14.1504 14.1402 14.0004 14.0602 13.6604 13.9402L10.6504 12.8902C10.0104 12.6602 9.15039 12.2002 9.15039 10.7302C9.15039 9.48019 10.1404 8.4502 11.3504 8.4502H13.2304C14.5604 8.4502 15.6504 9.5702 15.6504 10.9502C15.6504 11.3602 15.3104 11.7002 14.9004 11.7002C14.4904 11.7002 14.1504 11.3602 14.1504 10.9502C14.1504 10.4002 13.7404 9.9502 13.2304 9.9502H11.3504C10.9604 9.9502 10.6504 10.3002 10.6504 10.7302C10.6504 11.2702 10.8004 11.3502 11.1404 11.4702L14.1504 12.5202C14.7904 12.7502 15.6504 13.2102 15.6504 14.6802C15.6504 15.9402 14.6604 16.9602 13.4504 16.9602Z" fill="#0080FF"/>
<path id="Vector_2" d="M12.4004 17.96C11.9904 17.96 11.6504 17.62 11.6504 17.21V8.20996C11.6504 7.79996 11.9904 7.45996 12.4004 7.45996C12.8104 7.45996 13.1504 7.79996 13.1504 8.20996V17.21C13.1504 17.62 12.8104 17.96 12.4004 17.96Z" fill="#0080FF"/>
<path id="Vector_3" d="M12.4004 23.46C6.47039 23.46 1.65039 18.64 1.65039 12.71C1.65039 6.77996 6.47039 1.95996 12.4004 1.95996C12.8104 1.95996 13.1504 2.29996 13.1504 2.70996C13.1504 3.11996 12.8104 3.45996 12.4004 3.45996C7.30039 3.45996 3.15039 7.60996 3.15039 12.71C3.15039 17.81 7.30039 21.96 12.4004 21.96C17.5004 21.96 21.6504 17.81 21.6504 12.71C21.6504 12.3 21.9904 11.96 22.4004 11.96C22.8104 11.96 23.1504 12.3 23.1504 12.71C23.1504 18.64 18.3304 23.46 12.4004 23.46Z" fill="#0080FF"/>
<path id="Vector_4" d="M22.4004 7.45996C21.9904 7.45996 21.6504 7.11996 21.6504 6.70996V3.45996H18.4004C17.9904 3.45996 17.6504 3.11996 17.6504 2.70996C17.6504 2.29996 17.9904 1.95996 18.4004 1.95996H22.4004C22.8104 1.95996 23.1504 2.29996 23.1504 2.70996V6.70996C23.1504 7.11996 22.8104 7.45996 22.4004 7.45996Z" fill="#0080FF"/>
<path id="Vector_5" d="M17.3998 8.4599C17.2098 8.4599 17.0198 8.3899 16.8698 8.2399C16.5798 7.9499 16.5798 7.4699 16.8698 7.1799L21.8698 2.1799C22.1598 1.8899 22.6398 1.8899 22.9298 2.1799C23.2198 2.4699 23.2198 2.9499 22.9298 3.2399L17.9298 8.2399C17.7798 8.3899 17.5898 8.4599 17.3998 8.4599Z" fill="#0080FF"/>
</g>
</svg>
