<svg xmlns="http://www.w3.org/2000/svg" width="49" height="48" viewBox="0 0 49 48" fill="none">
<path d="M26.7001 34.5496C26.3001 34.1496 26.1081 33.6663 26.1241 33.0996C26.1401 32.5329 26.3488 32.0496 26.7501 31.6496L32.4001 25.9996H10.1001C9.53344 25.9996 9.0581 25.8076 8.6741 25.4236C8.2901 25.0396 8.09877 24.5649 8.1001 23.9996C8.1001 23.4329 8.2921 22.9576 8.6761 22.5736C9.0601 22.1896 9.53477 21.9983 10.1001 21.9996H32.4001L26.7001 16.2996C26.3001 15.8996 26.1001 15.4243 26.1001 14.8736C26.1001 14.3229 26.3001 13.8483 26.7001 13.4496C27.1001 13.0496 27.5754 12.8496 28.1261 12.8496C28.6768 12.8496 29.1514 13.0496 29.5501 13.4496L38.7001 22.5996C38.9001 22.7996 39.0421 23.0163 39.1261 23.2496C39.2101 23.4829 39.2514 23.7329 39.2501 23.9996C39.2501 24.2663 39.2081 24.5163 39.1241 24.7496C39.0401 24.9829 38.8988 25.1996 38.7001 25.3996L29.5001 34.5996C29.1334 34.9663 28.6754 35.1496 28.1261 35.1496C27.5768 35.1496 27.1014 34.9496 26.7001 34.5496Z" fill="#0080FF"/>
</svg>