<svg xmlns="http://www.w3.org/2000/svg" width="32" height="32" viewBox="0 0 32 32" fill="none">
  <path d="M4.46973 10L4.86973 13.105L4.49973 15.5L5.34673 16.817L6.76973 27.88C6.84973 28.52 7.37973 29 7.99973 29H24.1397C24.7597 29 25.2897 28.52 25.3697 27.88L27.5477 10L15.9997 8L4.46973 10Z" fill="#0074BA"/>
  <path d="M4.8719 13.1201L5.3469 16.8141C5.05257 17.4941 4.79716 18.1902 4.5819 18.8991C4.1699 20.2991 4.1419 21.2751 4.4019 21.8651C4.6019 22.3191 5.1019 22.8051 6.6089 22.8711C8.0849 22.9351 9.26889 22.6921 10.2749 22.2211C11.2859 21.7491 12.1739 21.0211 13.0189 20.0381C14.4969 18.3201 15.7489 15.9561 17.2869 13.0541C17.5509 12.5571 17.8219 12.0451 18.1039 11.5181C18.1649 11.4006 18.2486 11.2963 18.3502 11.2113C18.4518 11.1264 18.5692 11.0625 18.6957 11.0233C18.8222 10.9841 18.9553 10.9704 19.0871 10.9831C19.2189 10.9957 19.3469 11.0344 19.4637 11.0969C19.5804 11.1595 19.6836 11.2445 19.7672 11.3472C19.8508 11.4499 19.9131 11.5682 19.9507 11.6952C19.9882 11.8223 20.0001 11.9554 19.9857 12.0871C19.9713 12.2187 19.9309 12.3462 19.8669 12.4621C19.5969 12.9671 19.3329 13.4661 19.0729 13.9571C17.5479 16.8381 16.1729 19.4391 14.5349 21.3421C13.5559 22.4801 12.4529 23.4121 11.1219 24.0331C9.78689 24.6581 8.2759 24.9451 6.5219 24.8691C4.5949 24.7851 3.1969 24.0871 2.5719 22.6731C2.0079 21.3951 2.2259 19.8191 2.6639 18.3331C3.1139 16.8031 3.8739 15.1291 4.6739 13.5161L4.8709 13.1211L4.8719 13.1201Z" fill="#D3D3D3"/>
  <path d="M3.35611 9.06L3.00611 6.71C2.95611 6.34 3.24611 6 3.62611 6H28.3761C28.7561 6 29.0461 6.34 28.9961 6.71L28.6361 9.06C28.5561 9.6 28.0961 10 27.5561 10H4.44611C3.89611 10 3.43611 9.6 3.35611 9.06Z" fill="#00A6ED"/>
</svg>