<svg width="50" height="50" viewBox="0 0 50 50" fill="none" xmlns="http://www.w3.org/2000/svg">
<g id="octicon:person-24">
<path id="Vector" d="M25.0002 5.20825C27.4504 5.2075 29.8363 5.99219 31.8078 7.44715C33.7792 8.90211 35.2324 10.9507 35.9539 13.2923C36.6755 15.6338 36.6274 18.145 35.8168 20.4572C35.0063 22.7695 33.4758 24.761 31.4502 26.1395C34.9661 27.4291 38.0157 29.7414 40.2063 32.7789C42.3968 35.8164 43.6282 39.44 43.7418 43.1833C43.7525 43.391 43.7215 43.5988 43.6507 43.7945C43.58 43.9901 43.4708 44.1697 43.3298 44.3226C43.1887 44.4755 43.0185 44.5987 42.8292 44.6849C42.6398 44.7712 42.4352 44.8188 42.2272 44.8249C42.0193 44.831 41.8122 44.7955 41.6181 44.7205C41.4241 44.6455 41.2469 44.5325 41.0971 44.3881C40.9473 44.2437 40.8279 44.0709 40.7457 43.8797C40.6636 43.6886 40.6205 43.483 40.6189 43.2749C40.4949 39.2155 38.7951 35.3638 35.8797 32.5362C32.9644 29.7086 29.0626 28.1272 25.0012 28.1272C20.9399 28.1272 17.0381 29.7086 14.1227 32.5362C11.2074 35.3638 9.50758 39.2155 9.38352 43.2749C9.37108 43.6893 9.19454 44.0818 8.89273 44.366C8.59091 44.6503 8.18854 44.803 7.77414 44.7905C7.35974 44.7781 6.96725 44.6016 6.68302 44.2998C6.39878 43.9979 6.24608 43.5956 6.25852 43.1812C6.37257 39.4383 7.60413 35.8151 9.79468 32.7781C11.9852 29.741 15.0346 27.4289 18.5502 26.1395C16.5245 24.761 14.9941 22.7695 14.1835 20.4572C13.3729 18.145 13.3249 15.6338 14.0465 13.2923C14.768 10.9507 16.2212 8.90211 18.1926 7.44715C20.1641 5.99219 22.55 5.2075 25.0002 5.20825ZM16.6668 16.6666C16.6668 18.8767 17.5448 20.9963 19.1076 22.5591C20.6704 24.1219 22.79 24.9999 25.0002 24.9999C27.2103 24.9999 29.3299 24.1219 30.8927 22.5591C32.4555 20.9963 33.3335 18.8767 33.3335 16.6666C33.3335 14.4564 32.4555 12.3368 30.8927 10.774C29.3299 9.21123 27.2103 8.33325 25.0002 8.33325C22.79 8.33325 20.6704 9.21123 19.1076 10.774C17.5448 12.3368 16.6668 14.4564 16.6668 16.6666Z" fill="#26334D"/>
</g>
</svg>
