<svg width="50" height="50" viewBox="0 0 50 50" fill="none" xmlns="http://www.w3.org/2000/svg">
<g id="octicon:person-add-24">
<path id="Vector" d="M8.33351 19.7916C8.33364 18.0068 8.79233 16.252 9.66559 14.6955C10.5389 13.139 11.7974 11.833 13.3205 10.9027C14.8436 9.97239 16.5802 9.44904 18.3638 9.38283C20.1473 9.31663 21.9179 9.70978 23.5058 10.5246C25.0937 11.3394 26.4456 12.5485 27.4319 14.036C28.4181 15.5235 29.0057 17.2395 29.1381 19.0193C29.2706 20.7991 28.9435 22.5831 28.1883 24.2002C27.433 25.8173 26.275 27.2132 24.8252 28.2541C27.8332 29.4527 30.4253 31.5044 32.2827 34.1568C34.14 36.8092 35.1816 39.9467 35.2793 43.1833C35.29 43.391 35.259 43.5988 35.1882 43.7945C35.1175 43.9901 35.0083 44.1697 34.8673 44.3226C34.7262 44.4755 34.556 44.5987 34.3667 44.6849C34.1773 44.7712 33.9727 44.8188 33.7647 44.8249C33.5568 44.831 33.3497 44.7955 33.1556 44.7205C32.9616 44.6455 32.7844 44.5325 32.6346 44.3881C32.4848 44.2437 32.3654 44.0709 32.2832 43.8797C32.2011 43.6886 32.158 43.483 32.1564 43.2749C32.0497 39.7733 30.5837 36.4508 28.0691 34.0116C25.5545 31.5724 22.1889 30.2082 18.6856 30.2082C15.1823 30.2082 11.8167 31.5724 9.30207 34.0116C6.78745 36.4508 5.32144 39.7733 5.21476 43.2749C5.1939 43.6829 5.01409 44.0665 4.71384 44.3435C4.41359 44.6205 4.0168 44.769 3.60845 44.757C3.20011 44.745 2.8127 44.5735 2.52922 44.2794C2.24574 43.9852 2.08873 43.5918 2.09184 43.1833C2.19026 39.9314 3.24157 36.7801 5.11525 34.1205C6.98893 31.4609 9.60248 29.4101 12.6314 28.2228C11.2995 27.2573 10.2155 25.9898 9.46837 24.5242C8.72126 23.0585 8.33233 21.4366 8.33351 19.7916ZM18.7502 12.4999C17.7926 12.4999 16.8444 12.6885 15.9598 13.055C15.0751 13.4214 14.2713 13.9585 13.5942 14.6356C12.9171 15.3127 12.38 16.1165 12.0136 17.0012C11.6471 17.8859 11.4585 18.834 11.4585 19.7916C11.4585 20.7491 11.6471 21.6973 12.0136 22.582C12.38 23.4667 12.9171 24.2705 13.5942 24.9476C14.2713 25.6247 15.0751 26.1618 15.9598 26.5282C16.8444 26.8946 17.7926 27.0833 18.7502 27.0833C20.684 27.0833 22.5387 26.315 23.9062 24.9476C25.2736 23.5801 26.0418 21.7255 26.0418 19.7916C26.0418 17.8577 25.2736 16.0031 23.9062 14.6356C22.5387 13.2681 20.684 12.4999 18.7502 12.4999ZM40.1043 2.08325C40.5187 2.08325 40.9162 2.24787 41.2092 2.5409C41.5022 2.83392 41.6668 3.23135 41.6668 3.64575V8.33325H46.3543C46.7687 8.33325 47.1662 8.49787 47.4592 8.7909C47.7522 9.08392 47.9168 9.48135 47.9168 9.89575C47.9168 10.3102 47.7522 10.7076 47.4592 11.0006C47.1662 11.2936 46.7687 11.4583 46.3543 11.4583H41.6668V16.1458C41.6668 16.5602 41.5022 16.9576 41.2092 17.2506C40.9162 17.5436 40.5187 17.7083 40.1043 17.7083C39.6899 17.7083 39.2925 17.5436 38.9995 17.2506C38.7065 16.9576 38.5418 16.5602 38.5418 16.1458V11.4583H33.8543C33.4399 11.4583 33.0425 11.2936 32.7495 11.0006C32.4565 10.7076 32.2918 10.3102 32.2918 9.89575C32.2918 9.48135 32.4565 9.08392 32.7495 8.7909C33.0425 8.49787 33.4399 8.33325 33.8543 8.33325H38.5418V3.64575C38.5418 3.23135 38.7065 2.83392 38.9995 2.5409C39.2925 2.24787 39.6899 2.08325 40.1043 2.08325Z" fill="#26334D"/>
</g>
</svg>
