<svg xmlns="http://www.w3.org/2000/svg" width="36" height="36" viewBox="0 0 36 36" fill="none">
<g clip-path="url(#clip0_233_321)">
<path d="M34.2469 6.324L31.5049 9.067C31.5049 9.067 29.6759 9.981 27.8479 8.152C26.0189 6.324 26.9329 4.495 26.9329 4.495L29.6759 1.752C30.5909 0.838 29.4919 6.81912e-08 28.6669 6.81912e-08C27.7038 -0.000131265 26.7502 0.189445 25.8604 0.557904C24.9706 0.926363 24.1621 1.46649 23.481 2.14743C22.8 2.82838 22.2598 3.63681 21.8912 4.52655C21.5226 5.4163 21.3329 6.36993 21.3329 7.333C21.3329 7.902 21.4049 8.454 21.5269 8.986L15.3279 15.185L20.8129 20.67L27.0119 14.472C27.5542 14.5988 28.109 14.6639 28.6659 14.666C29.6289 14.666 30.5824 14.4763 31.4721 14.1078C32.3618 13.7393 33.1702 13.1991 33.8511 12.5182C34.5321 11.8373 35.0722 11.0289 35.4407 10.1392C35.8092 9.24954 35.9989 8.29598 35.9989 7.333C35.9999 6.503 35.1609 5.41 34.2469 6.324ZM15.2199 15.364L3.0309 27.552C2.31296 28.2705 1.90967 29.2447 1.90967 30.2605C1.90967 31.2763 2.31296 32.2505 3.0309 32.969C3.74945 33.6869 4.72365 34.0902 5.7394 34.0902C6.75516 34.0902 7.72936 33.6869 8.4479 32.969L20.6349 20.781L15.2199 15.364ZM5.7629 31.838C5.56828 31.838 5.37557 31.7997 5.19577 31.7252C5.01596 31.6507 4.85259 31.5415 4.71497 31.4039C4.57735 31.2663 4.46819 31.1029 4.39371 30.9231C4.31924 30.7433 4.2809 30.5506 4.2809 30.356C4.2809 30.1614 4.31924 29.9687 4.39371 29.7889C4.46819 29.6091 4.57735 29.4457 4.71497 29.3081C4.85259 29.1705 5.01596 29.0613 5.19577 28.9868C5.37557 28.9123 5.56828 28.874 5.7629 28.874C6.15595 28.874 6.53291 29.0301 6.81083 29.3081C7.08876 29.586 7.2449 29.9629 7.2449 30.356C7.2449 30.7491 7.08876 31.126 6.81083 31.4039C6.53291 31.6819 6.15595 31.838 5.7629 31.838Z" fill="#8899A6"/>
<path d="M30.8299 33.2794C31.9959 34.4454 33.8519 34.5004 34.9509 33.4004C36.0509 32.3004 35.9959 30.4454 34.8299 29.2794L11.5649 6.01443C10.3979 4.84743 8.54385 4.79343 7.44385 5.89343C6.34385 6.99343 6.39885 8.84843 7.56485 10.0144L30.8299 33.2794Z" fill="#F4900C"/>
<path d="M21.444 0.892562C21.444 0.892562 15.444 -2.10744 10.444 2.89256L3.44396 9.89256C3.44396 9.89256 2.44396 8.89256 1.44396 9.89256L0.443956 10.8926C0.443956 10.8926 -0.556044 11.8926 0.443956 12.8926L4.44396 16.8926C4.44396 16.8926 5.44396 17.8926 6.44396 16.8926L7.44396 15.8926C7.44396 15.8926 8.44396 14.8926 7.44396 13.8926L7.36596 13.8146C8.13596 13.0716 9.28896 12.3146 10.444 12.8926L14.444 8.89256C14.444 8.89256 13.444 5.89256 15.444 3.89256C17.444 1.89256 18.444 1.89256 20.444 1.89256C22.444 1.89256 21.444 0.892562 21.444 0.892562Z" fill="#66757F"/>
</g>
<defs>
<clipPath id="clip0_233_321">
<rect width="36" height="36" fill="white"/>
</clipPath>
</defs>
</svg>