<svg xmlns="http://www.w3.org/2000/svg" width="49" height="48" viewBox="0 0 49 48" fill="none">
<path d="M21.5001 34.5496C21.9001 34.1496 22.0921 33.6663 22.0761 33.0996C22.0601 32.5329 21.8514 32.0496 21.4501 31.6496L15.8001 25.9996H38.1001C38.6668 25.9996 39.1421 25.8076 39.5261 25.4236C39.9101 25.0396 40.1014 24.5649 40.1001 23.9996C40.1001 23.4329 39.9081 22.9576 39.5241 22.5736C39.1401 22.1896 38.6654 21.9983 38.1001 21.9996H15.8001L21.5001 16.2996C21.9001 15.8996 22.1001 15.4243 22.1001 14.8736C22.1001 14.3229 21.9001 13.8483 21.5001 13.4496C21.1001 13.0496 20.6248 12.8496 20.0741 12.8496C19.5234 12.8496 19.0488 13.0496 18.6501 13.4496L9.50009 22.5996C9.30009 22.7996 9.15809 23.0163 9.07409 23.2496C8.99009 23.4829 8.94876 23.7329 8.95009 23.9996C8.95009 24.2663 8.99209 24.5163 9.07609 24.7496C9.16009 24.9829 9.30142 25.1996 9.50009 25.3996L18.7001 34.5996C19.0668 34.9663 19.5248 35.1496 20.0741 35.1496C20.6234 35.1496 21.0988 34.9496 21.5001 34.5496Z" fill="#0080FF"/>
</svg>