<svg xmlns="http://www.w3.org/2000/svg" width="112" height="95" viewBox="0 0 112 95" fill="none">
<path d="M11.1999 95C8.25605 95 5.43277 93.8879 3.35115 91.9083C1.26954 89.9288 0.10009 87.2439 0.10009 84.4444V58.6678C0.10009 55.8683 1.26954 53.1834 3.35115 51.2039C5.43277 49.2243 8.25605 48.1122 11.1999 48.1122H26.6064C26.6064 44.4072 26.3733 40.6917 25.9183 36.9867C25.2301 33.06 24.0757 29.5661 22.4773 26.5156C20.8678 23.4544 18.8033 21.0583 16.2725 19.3061C13.7529 17.3428 10.545 16.3611 6.63788 16.3611V0C13.0647 0 18.6812 1.30889 23.5096 3.92667C28.296 6.51791 32.4112 10.0959 35.5529 14.3978C38.7061 19.1405 41.0302 24.3379 42.4348 29.7878C43.8502 35.8019 44.5428 41.9494 44.4993 48.1122V84.4444C44.4993 87.2439 43.3299 89.9288 41.2483 91.9083C39.1666 93.8879 36.3434 95 33.3995 95H11.1999ZM77.7988 95C74.8549 95 72.0316 93.8879 69.95 91.9083C67.8684 89.9288 66.6989 87.2439 66.6989 84.4444V58.6678C66.6989 55.8683 67.8684 53.1834 69.95 51.2039C72.0316 49.2243 74.8549 48.1122 77.7988 48.1122H93.2053C93.2053 44.4072 92.9722 40.6917 92.5171 36.9867C91.8289 33.06 90.6745 29.5661 89.0762 26.5156C87.4667 23.4544 85.4021 21.0583 82.8714 19.3061C80.3517 17.3428 77.1439 16.3611 73.2367 16.3611V0C79.6635 0 85.28 1.30889 90.1084 3.92667C94.8948 6.51791 99.01 10.0959 102.152 14.3978C105.305 19.1405 107.629 24.3379 109.034 29.7878C110.449 35.8019 111.142 41.9494 111.098 48.1122V84.4444C111.098 87.2439 109.929 89.9288 107.847 91.9083C105.765 93.8879 102.942 95 99.9984 95H77.7988Z" fill="#0080FF"/>
</svg>