<svg width="16" height="17" viewBox="0 0 16 17" fill="none" xmlns="http://www.w3.org/2000/svg">
<path id="Vector" d="M0 8.70996C0 10.8317 0.842854 12.8665 2.34315 14.3668C3.84344 15.8671 5.87827 16.71 8 16.71C10.1217 16.71 12.1566 15.8671 13.6569 14.3668C15.1571 12.8665 16 10.8317 16 8.70996C16 6.58823 15.1571 4.5534 13.6569 3.05311C12.1566 1.55282 10.1217 0.709961 8 0.709961C5.87827 0.709961 3.84344 1.55282 2.34315 3.05311C0.842854 4.5534 0 6.58823 0 8.70996ZM5.904 11.513C5.85788 11.5607 5.8027 11.5988 5.7417 11.625C5.6807 11.6512 5.61509 11.665 5.5487 11.6656C5.48231 11.6662 5.41647 11.6535 5.35502 11.6284C5.29358 11.6032 5.23775 11.5661 5.1908 11.5192C5.14386 11.4722 5.10673 11.4164 5.08159 11.3549C5.05645 11.2935 5.0438 11.2276 5.04437 11.1613C5.04495 11.0949 5.05875 11.0293 5.08495 10.9683C5.11115 10.9073 5.14924 10.8521 5.197 10.806L9.293 6.70996H6.525C6.39239 6.70996 6.26521 6.65728 6.17145 6.56351C6.07768 6.46975 6.025 6.34257 6.025 6.20996C6.025 6.07735 6.07768 5.95018 6.17145 5.85641C6.26521 5.76264 6.39239 5.70996 6.525 5.70996H10.5C10.6326 5.70996 10.7598 5.76264 10.8536 5.85641C10.9473 5.95018 11 6.07735 11 6.20996V10.185C11 10.3176 10.9473 10.4447 10.8536 10.5385C10.7598 10.6323 10.6326 10.685 10.5 10.685C10.3674 10.685 10.2402 10.6323 10.1464 10.5385C10.0527 10.4447 10 10.3176 10 10.185V7.41696L5.904 11.513Z" fill="#0080FF"/>
</svg>
