<svg width="28" height="24" viewBox="0 0 28 24" fill="none" xmlns="http://www.w3.org/2000/svg">
<path id="Vector" d="M4.85157 16.6824C6.63058 17.4193 8.5373 17.7985 10.4629 17.7985H15.8361C16.3863 17.7984 16.9311 17.9067 17.4394 18.1171C17.9478 18.3276 18.4097 18.6361 18.7987 19.0251C19.1878 19.4141 19.4964 19.8759 19.707 20.3842C19.9176 20.8925 20.026 21.4373 20.026 21.9874V22.7314H26.457V21.4262C26.457 18.9262 25.4639 16.5285 23.6961 14.7607C21.9283 12.9929 19.5306 11.9998 17.0306 11.9998L10.569 11.9998C8.06899 11.9998 5.67133 11.0066 3.90352 9.23881C2.13572 7.471 1.14258 5.07334 1.14258 2.57329V1.26806H7.57365V2.01206C7.57365 2.56223 7.68204 3.10702 7.89261 3.6153C8.10318 4.12359 8.41181 4.58541 8.80089 4.9744C9.18996 5.36339 9.65186 5.67193 10.1602 5.88239C10.6685 6.09284 11.2133 6.20111 11.7635 6.20098H17.1367C19.1539 6.20098 21.1282 6.61662 22.9451 7.40048" stroke="#0080FF" stroke-width="2" stroke-linecap="round" stroke-linejoin="round"/>
</svg>
