<svg width="131" height="68" viewBox="0 0 131 68" fill="none" xmlns="http://www.w3.org/2000/svg">
<g filter="url(#filter0_d_409_3960)">
<rect x="10" y="8" width="48" height="48" rx="24" fill="white" shape-rendering="crispEdges"/>
<path d="M25.0518 36.6824C26.8308 37.4193 28.7375 37.7985 30.6631 37.7985H36.0363C36.5865 37.7984 37.1313 37.9067 37.6396 38.1171C38.148 38.3276 38.6098 38.6361 38.9989 39.0251C39.388 39.4141 39.6966 39.8759 39.9072 40.3842C40.1178 40.8925 40.2262 41.4373 40.2262 41.9874V42.7314H46.6572V41.4262C46.6572 38.9262 45.6641 36.5285 43.8963 34.7607C42.1285 32.9929 39.7308 31.9998 37.2308 31.9998H30.7692C28.2692 31.9998 25.8715 31.0066 24.1037 29.2388C22.3359 27.471 21.3428 25.0733 21.3428 22.5733V21.2681H27.7738V22.0121C27.7738 22.5622 27.8822 23.107 28.0928 23.6153C28.3034 24.1236 28.612 24.5854 29.0011 24.9744C29.3902 25.3634 29.8521 25.6719 30.3604 25.8824C30.8687 26.0928 31.4135 26.2011 31.9637 26.201H37.3369C39.3541 26.201 41.3284 26.6166 43.1453 27.4005" stroke="#0080FF" stroke-width="2" stroke-linecap="round" stroke-linejoin="round"/>
</g>
<path d="M70.5025 40.668C69.3345 40.668 68.2785 40.468 67.3345 40.068C66.4065 39.668 65.6705 39.092 65.1265 38.34C64.5825 37.588 64.3025 36.7 64.2865 35.676H67.8865C67.9345 36.364 68.1745 36.908 68.6065 37.308C69.0545 37.708 69.6625 37.908 70.4305 37.908C71.2145 37.908 71.8305 37.724 72.2785 37.356C72.7265 36.972 72.9505 36.476 72.9505 35.868C72.9505 35.372 72.7985 34.964 72.4945 34.644C72.1905 34.324 71.8065 34.076 71.3425 33.9C70.8945 33.708 70.2705 33.5 69.4705 33.276C68.3825 32.956 67.4945 32.644 66.8065 32.34C66.1345 32.02 65.5505 31.548 65.0545 30.924C64.5745 30.284 64.3345 29.436 64.3345 28.38C64.3345 27.388 64.5825 26.524 65.0785 25.788C65.5745 25.052 66.2705 24.492 67.1665 24.108C68.0625 23.708 69.0865 23.508 70.2385 23.508C71.9665 23.508 73.3665 23.932 74.4385 24.78C75.5265 25.612 76.1265 26.78 76.2385 28.284H72.5425C72.5105 27.708 72.2625 27.236 71.7985 26.868C71.3505 26.484 70.7505 26.292 69.9985 26.292C69.3425 26.292 68.8145 26.46 68.4145 26.796C68.0305 27.132 67.8385 27.62 67.8385 28.26C67.8385 28.708 67.9825 29.084 68.2705 29.388C68.5745 29.676 68.9425 29.916 69.3745 30.108C69.8225 30.284 70.4465 30.492 71.2465 30.732C72.3345 31.052 73.2225 31.372 73.9105 31.692C74.5985 32.012 75.1905 32.492 75.6865 33.132C76.1825 33.772 76.4305 34.612 76.4305 35.652C76.4305 36.548 76.1985 37.38 75.7345 38.148C75.2705 38.916 74.5905 39.532 73.6945 39.996C72.7985 40.444 71.7345 40.668 70.5025 40.668ZM91.7035 33.564C91.7035 34.044 91.6715 34.476 91.6075 34.86H81.8875C81.9675 35.82 82.3035 36.572 82.8955 37.116C83.4875 37.66 84.2155 37.932 85.0795 37.932C86.3275 37.932 87.2155 37.396 87.7435 36.324H91.3675C90.9835 37.604 90.2475 38.66 89.1595 39.492C88.0715 40.308 86.7355 40.716 85.1515 40.716C83.8715 40.716 82.7195 40.436 81.6955 39.876C80.6875 39.3 79.8955 38.492 79.3195 37.452C78.7595 36.412 78.4795 35.212 78.4795 33.852C78.4795 32.476 78.7595 31.268 79.3195 30.228C79.8795 29.188 80.6635 28.388 81.6715 27.828C82.6795 27.268 83.8395 26.988 85.1515 26.988C86.4155 26.988 87.5435 27.26 88.5355 27.804C89.5435 28.348 90.3195 29.124 90.8635 30.132C91.4235 31.124 91.7035 32.268 91.7035 33.564ZM88.2235 32.604C88.2075 31.74 87.8955 31.052 87.2875 30.54C86.6795 30.012 85.9355 29.748 85.0555 29.748C84.2235 29.748 83.5195 30.004 82.9435 30.516C82.3835 31.012 82.0395 31.708 81.9115 32.604H88.2235ZM97.516 29.268C97.948 28.564 98.508 28.012 99.196 27.612C99.9 27.212 100.7 27.012 101.596 27.012V30.54H100.708C99.652 30.54 98.852 30.788 98.308 31.284C97.78 31.78 97.516 32.644 97.516 33.876V40.5H94.156V27.204H97.516V29.268ZM109.403 37.404L112.763 27.204H116.339L111.419 40.5H107.339L102.443 27.204H106.043L109.403 37.404ZM123.77 37.404L127.13 27.204H130.706L125.786 40.5H121.706L116.81 27.204H120.41L123.77 37.404Z" fill="#0080FF"/>
<defs>
<filter id="filter0_d_409_3960" x="0" y="0" width="68" height="68" filterUnits="userSpaceOnUse" color-interpolation-filters="sRGB">
<feFlood flood-opacity="0" result="BackgroundImageFix"/>
<feColorMatrix in="SourceAlpha" type="matrix" values="0 0 0 0 0 0 0 0 0 0 0 0 0 0 0 0 0 0 127 0" result="hardAlpha"/>
<feOffset dy="2"/>
<feGaussianBlur stdDeviation="5"/>
<feComposite in2="hardAlpha" operator="out"/>
<feColorMatrix type="matrix" values="0 0 0 0 0.0939583 0 0 0 0 0.0983125 0 0 0 0 0.1375 0 0 0 0.05 0"/>
<feBlend mode="normal" in2="BackgroundImageFix" result="effect1_dropShadow_409_3960"/>
<feBlend mode="normal" in="SourceGraphic" in2="effect1_dropShadow_409_3960" result="shape"/>
</filter>
</defs>
</svg>
