<svg width="18" height="17" viewBox="0 0 18 17" fill="none" xmlns="http://www.w3.org/2000/svg">
<g id="Vector" filter="url(#filter0_b_986_1667)">
<path d="M8.99971 13.6095L13.0594 16.0649C13.8029 16.5149 14.7127 15.8497 14.517 15.0084L13.4409 10.391L17.0311 7.28023C17.6865 6.71285 17.3344 5.63678 16.4735 5.5683L11.7486 5.16722L9.8997 0.804245C9.56709 0.0118663 8.43233 0.0118663 8.09973 0.804245L6.25084 5.15744L1.52592 5.55852C0.66506 5.627 0.312891 6.70307 0.968316 7.27045L4.55848 10.3813L3.48241 14.9986C3.28676 15.8399 4.19653 16.5051 4.93999 16.0551L8.99971 13.6095Z" fill="#FFC107"/>
<path d="M9.02559 13.5667L8.99976 13.5511L8.97391 13.5666L4.91419 16.0123L4.9141 16.0123C4.20868 16.4393 3.34545 15.8083 3.5311 15.0099C3.5311 15.0099 3.53111 15.0099 3.53111 15.0099L4.60717 10.3926L4.61402 10.3632L4.59122 10.3435L1.00106 7.23266L1.00104 7.23264C0.378943 6.69411 0.713533 5.6733 1.52988 5.60836L1.53014 5.60834L6.25507 5.20726L6.28509 5.20471L6.29686 5.17698L8.14575 0.823791L8.14583 0.823597C8.46128 0.0720823 9.53814 0.0720823 9.85359 0.823597L9.85366 0.823754L11.7025 5.18673L11.7143 5.21449L11.7444 5.21704L16.4693 5.61812L16.4695 5.61814C17.2859 5.68308 17.6205 6.70389 16.9984 7.24243L16.9984 7.24244L13.4082 10.3533L13.3854 10.373L13.3923 10.4024L14.4683 15.0197C14.4683 15.0197 14.4683 15.0197 14.4683 15.0197C14.654 15.8181 13.7907 16.4491 13.0853 16.0221L13.0853 16.0221L9.02559 13.5667Z" stroke="#26334D" stroke-width="0.1"/>
</g>
<defs>
<filter id="filter0_b_986_1667" x="-3.37109" y="-3.79004" width="24.7412" height="24" filterUnits="userSpaceOnUse" color-interpolation-filters="sRGB">
<feFlood flood-opacity="0" result="BackgroundImageFix"/>
<feGaussianBlur in="BackgroundImageFix" stdDeviation="2"/>
<feComposite in2="SourceAlpha" operator="in" result="effect1_backgroundBlur_986_1667"/>
<feBlend mode="normal" in="SourceGraphic" in2="effect1_backgroundBlur_986_1667" result="shape"/>
</filter>
</defs>
</svg>
