<svg xmlns="http://www.w3.org/2000/svg" width="32" height="32" viewBox="0 0 32 32" fill="none">
  <g filter="url(#filter0_dd_238_271)">
    <path d="M29.9421 19.3293L26.5721 12.9193C26.2821 12.3693 25.7121 12.0293 25.0921 12.0293H18.2521C18.2123 12.0293 18.1741 12.0451 18.146 12.0732C18.1179 12.1014 18.1021 12.1395 18.1021 12.1793V21.9663L30.1021 20.1193C30.1021 19.8493 30.0521 19.5793 29.9421 19.3293Z" fill="url(#paint0_linear_238_271)"/>
  </g>
  <path d="M29.9421 19.3293L26.5721 12.9193C26.2821 12.3693 25.7121 12.0293 25.0921 12.0293H18.2521C18.2123 12.0293 18.1741 12.0451 18.146 12.0732C18.1179 12.1014 18.1021 12.1395 18.1021 12.1793V21.9663L30.1021 20.1193C30.1021 19.8493 30.0521 19.5793 29.9421 19.3293Z" fill="url(#paint1_linear_238_271)"/>
  <path d="M29.9421 19.3293L26.5721 12.9193C26.2821 12.3693 25.7121 12.0293 25.0921 12.0293H18.2521C18.2123 12.0293 18.1741 12.0451 18.146 12.0732C18.1179 12.1014 18.1021 12.1395 18.1021 12.1793V21.9663L30.1021 20.1193C30.1021 19.8493 30.0521 19.5793 29.9421 19.3293Z" fill="url(#paint2_linear_238_271)"/>
  <g filter="url(#filter1_dd_238_271)">
    <path d="M5.10205 7.0293H15.102C16.762 7.0293 18.1021 8.3693 18.1021 10.0293V21.2803H2.10205V10.0303C2.10205 8.3703 3.44205 7.0303 5.10205 7.0303V7.0293Z" fill="url(#paint3_linear_238_271)"/>
  </g>
  <path d="M5.10205 7.0293H15.102C16.762 7.0293 18.1021 8.3693 18.1021 10.0293V21.2803H2.10205V10.0303C2.10205 8.3703 3.44205 7.0303 5.10205 7.0303V7.0293Z" fill="url(#paint4_linear_238_271)"/>
  <path d="M5.10205 7.0293H15.102C16.762 7.0293 18.1021 8.3693 18.1021 10.0293V21.2803H2.10205V10.0303C2.10205 8.3703 3.44205 7.0303 5.10205 7.0303V7.0293Z" fill="url(#paint5_linear_238_271)"/>
  <path d="M29.792 19.0291H23.202C22.592 19.0291 22.102 18.5391 22.102 17.9291V14.1391C22.102 13.5291 22.592 13.0391 23.202 13.0391H26.622L29.792 19.0291Z" fill="url(#paint6_linear_238_271)"/>
  <path d="M29.792 19.0291H23.202C22.592 19.0291 22.102 18.5391 22.102 17.9291V14.1391C22.102 13.5291 22.592 13.0391 23.202 13.0391H26.622L29.792 19.0291Z" fill="url(#paint7_linear_238_271)"/>
  <path d="M29.792 19.0291H23.202C22.592 19.0291 22.102 18.5391 22.102 17.9291V14.1391C22.102 13.5291 22.592 13.0391 23.202 13.0391H26.622L29.792 19.0291Z" fill="url(#paint8_linear_238_271)"/>
  <path d="M18.1021 27.0344V20.0244H2.10205V25.2344C2.10205 26.2244 2.91205 27.0344 3.90205 27.0344H18.1021Z" fill="url(#paint9_linear_238_271)"/>
  <path d="M18.1021 27.0344V20.0244H2.10205V25.2344C2.10205 26.2244 2.91205 27.0344 3.90205 27.0344H18.1021Z" fill="url(#paint10_linear_238_271)"/>
  <path d="M18.1021 27.0344V20.0244H2.10205V25.2344C2.10205 26.2244 2.91205 27.0344 3.90205 27.0344H18.1021Z" fill="url(#paint11_linear_238_271)"/>
  <g filter="url(#filter2_dd_238_271)">
    <path d="M8.60205 28.0293C8.20423 28.0293 7.8227 27.8713 7.54139 27.59C7.26009 27.3087 7.10205 26.9271 7.10205 26.5293C7.10205 26.1315 7.26009 25.7499 7.54139 25.4686C7.8227 25.1873 8.20423 25.0293 8.60205 25.0293C8.99988 25.0293 9.38141 25.1873 9.66271 25.4686C9.94402 25.7499 10.1021 26.1315 10.1021 26.5293C10.1021 26.9271 9.94402 27.3087 9.66271 27.59C9.38141 27.8713 8.99988 28.0293 8.60205 28.0293Z" fill="#D9C3F0"/>
  </g>
  <path d="M2.10186 22.0293H2.60186C3.45186 22.0293 4.14186 22.7393 4.10186 23.5993C4.06186 24.4093 3.36186 25.0293 2.55186 25.0293H2.10186V22.0293Z" fill="url(#paint12_linear_238_271)"/>
  <path d="M18.1021 20.0293H30.1021V25.2593C30.1021 26.2393 29.3021 27.0393 28.3221 27.0393H18.1021V20.0293Z" fill="url(#paint13_linear_238_271)"/>
  <path d="M18.1021 20.0293H30.1021V25.2593C30.1021 26.2393 29.3021 27.0393 28.3221 27.0393H18.1021V20.0293Z" fill="url(#paint14_linear_238_271)"/>
  <path d="M18.1021 20.0293H30.1021V25.2593C30.1021 26.2393 29.3021 27.0393 28.3221 27.0393H18.1021V20.0293Z" fill="url(#paint15_linear_238_271)"/>
  <path d="M18.1021 20.0293H30.1021V25.2593C30.1021 26.2393 29.3021 27.0393 28.3221 27.0393H18.1021V20.0293Z" fill="url(#paint16_linear_238_271)"/>
  <path fill-rule="evenodd" clip-rule="evenodd" d="M19.521 27.0393C19.4488 26.4873 19.4953 25.9262 19.6573 25.3936C19.8192 24.861 20.093 24.3691 20.4602 23.9507C20.8275 23.5324 21.2798 23.1972 21.7869 22.9676C22.294 22.7379 22.8443 22.6191 23.401 22.6191C23.9577 22.6191 24.5079 22.7379 25.0151 22.9676C25.5222 23.1972 25.9745 23.5324 26.3417 23.9507C26.709 24.3691 26.9827 24.861 27.1447 25.3936C27.3066 25.9262 27.3531 26.4873 27.281 27.0393H19.521Z" fill="url(#paint17_linear_238_271)"/>
  <path fill-rule="evenodd" clip-rule="evenodd" d="M4.72214 27.0393C4.64999 26.4873 4.69645 25.9262 4.85843 25.3936C5.0204 24.861 5.29415 24.3691 5.6614 23.9507C6.02864 23.5324 6.48093 23.1972 6.98805 22.9676C7.49517 22.7379 8.04545 22.6191 8.60214 22.6191C9.15882 22.6191 9.70911 22.7379 10.2162 22.9676C10.7233 23.1972 11.1756 23.5324 11.5429 23.9507C11.9101 24.3691 12.1839 24.861 12.3458 25.3936C12.5078 25.9262 12.5543 26.4873 12.4821 27.0393H4.72214Z" fill="url(#paint18_linear_238_271)"/>
  <g filter="url(#filter3_dd_238_271)">
    <path d="M8.57294 30.0006C7.65238 30.0006 6.76952 29.6349 6.11858 28.984C5.46764 28.333 5.10194 27.4502 5.10194 26.5296C5.10194 25.609 5.46764 24.7262 6.11858 24.0752C6.76952 23.4243 7.65238 23.0586 8.57294 23.0586C9.49351 23.0586 10.3764 23.4243 11.0273 24.0752C11.6783 24.7262 12.0439 25.609 12.0439 26.5296C12.0439 27.4502 11.6783 28.333 11.0273 28.984C10.3764 29.6349 9.49351 30.0006 8.57294 30.0006Z" fill="url(#paint19_linear_238_271)"/>
    <path d="M8.57294 30.0006C7.65238 30.0006 6.76952 29.6349 6.11858 28.984C5.46764 28.333 5.10194 27.4502 5.10194 26.5296C5.10194 25.609 5.46764 24.7262 6.11858 24.0752C6.76952 23.4243 7.65238 23.0586 8.57294 23.0586C9.49351 23.0586 10.3764 23.4243 11.0273 24.0752C11.6783 24.7262 12.0439 25.609 12.0439 26.5296C12.0439 27.4502 11.6783 28.333 11.0273 28.984C10.3764 29.6349 9.49351 30.0006 8.57294 30.0006Z" fill="url(#paint20_radial_238_271)"/>
  </g>
  <g filter="url(#filter4_dd_238_271)">
    <path d="M8.57007 27.81C8.23033 27.81 7.9045 27.6751 7.66427 27.4349C7.42404 27.1946 7.28907 26.8688 7.28907 26.529C7.28907 26.1893 7.42404 25.8635 7.66427 25.6232C7.9045 25.383 8.23033 25.248 8.57007 25.248C8.90982 25.248 9.23564 25.383 9.47588 25.6232C9.71611 25.8635 9.85107 26.1893 9.85107 26.529C9.85107 26.8688 9.71611 27.1946 9.47588 27.4349C9.23564 27.6751 8.90982 27.81 8.57007 27.81Z" fill="#D9C3F0"/>
  </g>
  <path d="M29.1921 25.0293H30.1021V21.0293H29.1921C28.5921 21.0293 28.1021 21.5193 28.1021 22.1193V23.9393C28.1021 24.5393 28.5921 25.0293 29.1921 25.0293Z" fill="#F8DA4B"/>
  <g filter="url(#filter5_dd_238_271)">
    <path d="M23.4011 30.0006C22.4805 30.0006 21.5976 29.6349 20.9467 28.984C20.2958 28.333 19.9301 27.4502 19.9301 26.5296C19.9301 25.609 20.2958 24.7262 20.9467 24.0752C21.5976 23.4243 22.4805 23.0586 23.4011 23.0586C24.3216 23.0586 25.2045 23.4243 25.8554 24.0752C26.5064 24.7262 26.8721 25.609 26.8721 26.5296C26.8721 27.4502 26.5064 28.333 25.8554 28.984C25.2045 29.6349 24.3216 30.0006 23.4011 30.0006Z" fill="url(#paint21_linear_238_271)"/>
    <path d="M23.4011 30.0006C22.4805 30.0006 21.5976 29.6349 20.9467 28.984C20.2958 28.333 19.9301 27.4502 19.9301 26.5296C19.9301 25.609 20.2958 24.7262 20.9467 24.0752C21.5976 23.4243 22.4805 23.0586 23.4011 23.0586C24.3216 23.0586 25.2045 23.4243 25.8554 24.0752C26.5064 24.7262 26.8721 25.609 26.8721 26.5296C26.8721 27.4502 26.5064 28.333 25.8554 28.984C25.2045 29.6349 24.3216 30.0006 23.4011 30.0006Z" fill="url(#paint22_radial_238_271)"/>
  </g>
  <g filter="url(#filter6_dd_238_271)">
    <path d="M23.3992 27.81C23.0594 27.81 22.7336 27.6751 22.4934 27.4349C22.2531 27.1946 22.1182 26.8688 22.1182 26.529C22.1182 26.1893 22.2531 25.8635 22.4934 25.6232C22.7336 25.383 23.0594 25.248 23.3992 25.248C23.7389 25.248 24.0647 25.383 24.305 25.6232C24.5452 25.8635 24.6802 26.1893 24.6802 26.529C24.6802 26.8688 24.5452 27.1946 24.305 27.4349C24.0647 27.6751 23.7389 27.81 23.3992 27.81Z" fill="#D9C3F0"/>
  </g>
  <g filter="url(#filter7_f_238_271)">
    <path d="M23.2441 28.585C21.9203 28.585 20.8471 27.5118 20.8471 26.188C20.8471 24.8642 21.9203 23.791 23.2441 23.791C24.5679 23.791 25.6411 24.8642 25.6411 26.188C25.6411 27.5118 24.5679 28.585 23.2441 28.585Z" stroke="url(#paint23_linear_238_271)" stroke-width="0.85"/>
  </g>
  <g filter="url(#filter8_f_238_271)">
    <path d="M8.37302 28.585C7.04919 28.585 5.97602 27.5118 5.97602 26.188C5.97602 24.8642 7.04919 23.791 8.37302 23.791C9.69684 23.791 10.77 24.8642 10.77 26.188C10.77 27.5118 9.69684 28.585 8.37302 28.585Z" stroke="url(#paint24_linear_238_271)" stroke-width="0.85"/>
  </g>
  <defs>
    <filter id="filter0_dd_238_271" x="16.6021" y="11.5293" width="14.5" height="11.1365" filterUnits="userSpaceOnUse" color-interpolation-filters="sRGB">
      <feFlood flood-opacity="0" result="BackgroundImageFix"/>
      <feColorMatrix in="SourceAlpha" type="matrix" values="0 0 0 0 0 0 0 0 0 0 0 0 0 0 0 0 0 0 127 0" result="hardAlpha"/>
      <feOffset dx="-1" dy="0.2"/>
      <feGaussianBlur stdDeviation="0.25"/>
      <feComposite in2="hardAlpha" operator="out"/>
      <feColorMatrix type="matrix" values="0 0 0 0 1 0 0 0 0 0.945098 0 0 0 0 0.996078 0 0 0 1 0"/>
      <feBlend mode="normal" in2="BackgroundImageFix" result="effect1_dropShadow_238_271"/>
      <feColorMatrix in="SourceAlpha" type="matrix" values="0 0 0 0 0 0 0 0 0 0 0 0 0 0 0 0 0 0 127 0" result="hardAlpha"/>
      <feOffset dx="0.5"/>
      <feGaussianBlur stdDeviation="0.25"/>
      <feComposite in2="hardAlpha" operator="out"/>
      <feColorMatrix type="matrix" values="0 0 0 0 0.678431 0 0 0 0 0.639216 0 0 0 0 0.643137 0 0 0 1 0"/>
      <feBlend mode="normal" in2="effect1_dropShadow_238_271" result="effect2_dropShadow_238_271"/>
      <feBlend mode="normal" in="SourceGraphic" in2="effect2_dropShadow_238_271" result="shape"/>
    </filter>
    <filter id="filter1_dd_238_271" x="0.602051" y="6.5293" width="18.8" height="15.251" filterUnits="userSpaceOnUse" color-interpolation-filters="sRGB">
      <feFlood flood-opacity="0" result="BackgroundImageFix"/>
      <feColorMatrix in="SourceAlpha" type="matrix" values="0 0 0 0 0 0 0 0 0 0 0 0 0 0 0 0 0 0 127 0" result="hardAlpha"/>
      <feOffset dx="0.8"/>
      <feGaussianBlur stdDeviation="0.25"/>
      <feComposite in2="hardAlpha" operator="out"/>
      <feColorMatrix type="matrix" values="0 0 0 0 0.784314 0 0 0 0 0.615686 0 0 0 0 0.258824 0 0 0 1 0"/>
      <feBlend mode="normal" in2="BackgroundImageFix" result="effect1_dropShadow_238_271"/>
      <feColorMatrix in="SourceAlpha" type="matrix" values="0 0 0 0 0 0 0 0 0 0 0 0 0 0 0 0 0 0 127 0" result="hardAlpha"/>
      <feOffset dx="-1"/>
      <feGaussianBlur stdDeviation="0.25"/>
      <feComposite in2="hardAlpha" operator="out"/>
      <feColorMatrix type="matrix" values="0 0 0 0 0.909804 0 0 0 0 0.756863 0 0 0 0 0.27451 0 0 0 1 0"/>
      <feBlend mode="normal" in2="effect1_dropShadow_238_271" result="effect2_dropShadow_238_271"/>
      <feBlend mode="normal" in="SourceGraphic" in2="effect2_dropShadow_238_271" result="shape"/>
    </filter>
    <filter id="filter2_dd_238_271" x="6.95205" y="24.8793" width="3.3" height="3.3" filterUnits="userSpaceOnUse" color-interpolation-filters="sRGB">
      <feFlood flood-opacity="0" result="BackgroundImageFix"/>
      <feColorMatrix in="SourceAlpha" type="matrix" values="0 0 0 0 0 0 0 0 0 0 0 0 0 0 0 0 0 0 127 0" result="hardAlpha"/>
      <feOffset dx="0.05" dy="-0.05"/>
      <feGaussianBlur stdDeviation="0.05"/>
      <feComposite in2="hardAlpha" operator="out"/>
      <feColorMatrix type="matrix" values="0 0 0 0 0.478431 0 0 0 0 0.364706 0 0 0 0 0.584314 0 0 0 1 0"/>
      <feBlend mode="normal" in2="BackgroundImageFix" result="effect1_dropShadow_238_271"/>
      <feColorMatrix in="SourceAlpha" type="matrix" values="0 0 0 0 0 0 0 0 0 0 0 0 0 0 0 0 0 0 127 0" result="hardAlpha"/>
      <feOffset dx="-0.05" dy="0.05"/>
      <feGaussianBlur stdDeviation="0.05"/>
      <feComposite in2="hardAlpha" operator="out"/>
      <feColorMatrix type="matrix" values="0 0 0 0 0.807843 0 0 0 0 0.764706 0 0 0 0 0.858824 0 0 0 1 0"/>
      <feBlend mode="normal" in2="effect1_dropShadow_238_271" result="effect2_dropShadow_238_271"/>
      <feBlend mode="normal" in="SourceGraphic" in2="effect2_dropShadow_238_271" result="shape"/>
    </filter>
    <filter id="filter3_dd_238_271" x="4.10205" y="22.0586" width="8.94189" height="8.94238" filterUnits="userSpaceOnUse" color-interpolation-filters="sRGB">
      <feFlood flood-opacity="0" result="BackgroundImageFix"/>
      <feColorMatrix in="SourceAlpha" type="matrix" values="0 0 0 0 0 0 0 0 0 0 0 0 0 0 0 0 0 0 127 0" result="hardAlpha"/>
      <feOffset/>
      <feGaussianBlur stdDeviation="0.5"/>
      <feComposite in2="hardAlpha" operator="out"/>
      <feColorMatrix type="matrix" values="0 0 0 0 0.145098 0 0 0 0 0.0823529 0 0 0 0 0.215686 0 0 0 1 0"/>
      <feBlend mode="normal" in2="BackgroundImageFix" result="effect1_dropShadow_238_271"/>
      <feColorMatrix in="SourceAlpha" type="matrix" values="0 0 0 0 0 0 0 0 0 0 0 0 0 0 0 0 0 0 127 0" result="hardAlpha"/>
      <feOffset dy="0.15"/>
      <feGaussianBlur stdDeviation="0.125"/>
      <feComposite in2="hardAlpha" operator="out"/>
      <feColorMatrix type="matrix" values="0 0 0 0 0.207843 0 0 0 0 0.0313726 0 0 0 0 0.235294 0 0 0 1 0"/>
      <feBlend mode="normal" in2="effect1_dropShadow_238_271" result="effect2_dropShadow_238_271"/>
      <feBlend mode="normal" in="SourceGraphic" in2="effect2_dropShadow_238_271" result="shape"/>
    </filter>
    <filter id="filter4_dd_238_271" x="7.13906" y="25.098" width="2.86201" height="2.86152" filterUnits="userSpaceOnUse" color-interpolation-filters="sRGB">
      <feFlood flood-opacity="0" result="BackgroundImageFix"/>
      <feColorMatrix in="SourceAlpha" type="matrix" values="0 0 0 0 0 0 0 0 0 0 0 0 0 0 0 0 0 0 127 0" result="hardAlpha"/>
      <feOffset dx="0.05" dy="-0.05"/>
      <feGaussianBlur stdDeviation="0.05"/>
      <feComposite in2="hardAlpha" operator="out"/>
      <feColorMatrix type="matrix" values="0 0 0 0 0.478431 0 0 0 0 0.364706 0 0 0 0 0.584314 0 0 0 1 0"/>
      <feBlend mode="normal" in2="BackgroundImageFix" result="effect1_dropShadow_238_271"/>
      <feColorMatrix in="SourceAlpha" type="matrix" values="0 0 0 0 0 0 0 0 0 0 0 0 0 0 0 0 0 0 127 0" result="hardAlpha"/>
      <feOffset dx="-0.05" dy="0.05"/>
      <feGaussianBlur stdDeviation="0.05"/>
      <feComposite in2="hardAlpha" operator="out"/>
      <feColorMatrix type="matrix" values="0 0 0 0 0.807843 0 0 0 0 0.764706 0 0 0 0 0.858824 0 0 0 1 0"/>
      <feBlend mode="normal" in2="effect1_dropShadow_238_271" result="effect2_dropShadow_238_271"/>
      <feBlend mode="normal" in="SourceGraphic" in2="effect2_dropShadow_238_271" result="shape"/>
    </filter>
    <filter id="filter5_dd_238_271" x="18.9302" y="22.0586" width="8.94189" height="8.94238" filterUnits="userSpaceOnUse" color-interpolation-filters="sRGB">
      <feFlood flood-opacity="0" result="BackgroundImageFix"/>
      <feColorMatrix in="SourceAlpha" type="matrix" values="0 0 0 0 0 0 0 0 0 0 0 0 0 0 0 0 0 0 127 0" result="hardAlpha"/>
      <feOffset/>
      <feGaussianBlur stdDeviation="0.5"/>
      <feComposite in2="hardAlpha" operator="out"/>
      <feColorMatrix type="matrix" values="0 0 0 0 0.145098 0 0 0 0 0.0823529 0 0 0 0 0.215686 0 0 0 1 0"/>
      <feBlend mode="normal" in2="BackgroundImageFix" result="effect1_dropShadow_238_271"/>
      <feColorMatrix in="SourceAlpha" type="matrix" values="0 0 0 0 0 0 0 0 0 0 0 0 0 0 0 0 0 0 127 0" result="hardAlpha"/>
      <feOffset dy="0.15"/>
      <feGaussianBlur stdDeviation="0.125"/>
      <feComposite in2="hardAlpha" operator="out"/>
      <feColorMatrix type="matrix" values="0 0 0 0 0.207843 0 0 0 0 0.0313726 0 0 0 0 0.235294 0 0 0 1 0"/>
      <feBlend mode="normal" in2="effect1_dropShadow_238_271" result="effect2_dropShadow_238_271"/>
      <feBlend mode="normal" in="SourceGraphic" in2="effect2_dropShadow_238_271" result="shape"/>
    </filter>
    <filter id="filter6_dd_238_271" x="21.9682" y="25.098" width="2.86201" height="2.86152" filterUnits="userSpaceOnUse" color-interpolation-filters="sRGB">
      <feFlood flood-opacity="0" result="BackgroundImageFix"/>
      <feColorMatrix in="SourceAlpha" type="matrix" values="0 0 0 0 0 0 0 0 0 0 0 0 0 0 0 0 0 0 127 0" result="hardAlpha"/>
      <feOffset dx="0.05" dy="-0.05"/>
      <feGaussianBlur stdDeviation="0.05"/>
      <feComposite in2="hardAlpha" operator="out"/>
      <feColorMatrix type="matrix" values="0 0 0 0 0.478431 0 0 0 0 0.364706 0 0 0 0 0.584314 0 0 0 1 0"/>
      <feBlend mode="normal" in2="BackgroundImageFix" result="effect1_dropShadow_238_271"/>
      <feColorMatrix in="SourceAlpha" type="matrix" values="0 0 0 0 0 0 0 0 0 0 0 0 0 0 0 0 0 0 127 0" result="hardAlpha"/>
      <feOffset dx="-0.05" dy="0.05"/>
      <feGaussianBlur stdDeviation="0.05"/>
      <feComposite in2="hardAlpha" operator="out"/>
      <feColorMatrix type="matrix" values="0 0 0 0 0.807843 0 0 0 0 0.764706 0 0 0 0 0.858824 0 0 0 1 0"/>
      <feBlend mode="normal" in2="effect1_dropShadow_238_271" result="effect2_dropShadow_238_271"/>
      <feBlend mode="normal" in="SourceGraphic" in2="effect2_dropShadow_238_271" result="shape"/>
    </filter>
    <filter id="filter7_f_238_271" x="19.6719" y="22.6162" width="7.14404" height="7.14355" filterUnits="userSpaceOnUse" color-interpolation-filters="sRGB">
      <feFlood flood-opacity="0" result="BackgroundImageFix"/>
      <feBlend mode="normal" in="SourceGraphic" in2="BackgroundImageFix" result="shape"/>
      <feGaussianBlur stdDeviation="0.375" result="effect1_foregroundBlur_238_271"/>
    </filter>
    <filter id="filter8_f_238_271" x="4.80078" y="22.6162" width="7.14404" height="7.14355" filterUnits="userSpaceOnUse" color-interpolation-filters="sRGB">
      <feFlood flood-opacity="0" result="BackgroundImageFix"/>
      <feBlend mode="normal" in="SourceGraphic" in2="BackgroundImageFix" result="shape"/>
      <feGaussianBlur stdDeviation="0.375" result="effect1_foregroundBlur_238_271"/>
    </filter>
    <linearGradient id="paint0_linear_238_271" x1="29.5391" y1="16.0733" x2="18.1021" y2="16.0733" gradientUnits="userSpaceOnUse">
      <stop stop-color="#C9BDD1"/>
      <stop offset="1" stop-color="#EBDDF3"/>
    </linearGradient>
    <linearGradient id="paint1_linear_238_271" x1="23.4991" y1="11.8653" x2="23.4991" y2="12.6323" gradientUnits="userSpaceOnUse">
      <stop stop-color="#C8C6C5"/>
      <stop offset="0.495" stop-color="#C8C6C5" stop-opacity="0"/>
    </linearGradient>
    <linearGradient id="paint2_linear_238_271" x1="18.1021" y1="15.8103" x2="18.3081" y2="15.8103" gradientUnits="userSpaceOnUse">
      <stop stop-color="#604114"/>
      <stop offset="1" stop-color="#604114" stop-opacity="0"/>
    </linearGradient>
    <linearGradient id="paint3_linear_238_271" x1="17.3411" y1="21.0263" x2="2.10205" y2="12.5853" gradientUnits="userSpaceOnUse">
      <stop stop-color="#F1C147"/>
      <stop offset="1" stop-color="#E0B343"/>
    </linearGradient>
    <linearGradient id="paint4_linear_238_271" x1="10.1021" y1="7.0293" x2="10.1021" y2="9.1193" gradientUnits="userSpaceOnUse">
      <stop stop-color="#EAC439"/>
      <stop offset="1" stop-color="#EAC439" stop-opacity="0"/>
    </linearGradient>
    <linearGradient id="paint5_linear_238_271" x1="2.10205" y1="15.1543" x2="2.39105" y2="15.1543" gradientUnits="userSpaceOnUse">
      <stop stop-color="#DDBE7A"/>
      <stop offset="1" stop-color="#DDBE7A" stop-opacity="0"/>
    </linearGradient>
    <linearGradient id="paint6_linear_238_271" x1="22.664" y1="13.9041" x2="28.727" y2="19.0291" gradientUnits="userSpaceOnUse">
      <stop stop-color="#35A5E2"/>
      <stop offset="1" stop-color="#4AD3F9"/>
    </linearGradient>
    <linearGradient id="paint7_linear_238_271" x1="25.947" y1="13.0391" x2="25.947" y2="16.8691" gradientUnits="userSpaceOnUse">
      <stop stop-color="#1D95DD"/>
      <stop offset="1" stop-color="#1D95DD" stop-opacity="0"/>
    </linearGradient>
    <linearGradient id="paint8_linear_238_271" x1="21.688" y1="16.5521" x2="23.117" y2="16.5521" gradientUnits="userSpaceOnUse">
      <stop stop-color="#48B8E6"/>
      <stop offset="1" stop-color="#48B8E6" stop-opacity="0"/>
    </linearGradient>
    <linearGradient id="paint9_linear_238_271" x1="13.2721" y1="20.0244" x2="13.2271" y2="26.0914" gradientUnits="userSpaceOnUse">
      <stop stop-color="#FD6E33"/>
      <stop offset="1" stop-color="#EB3C3D"/>
    </linearGradient>
    <linearGradient id="paint10_linear_238_271" x1="18.1021" y1="22.6144" x2="17.0011" y2="22.6144" gradientUnits="userSpaceOnUse">
      <stop offset="0.513" stop-color="#EA3A0C"/>
      <stop offset="1" stop-color="#EA3A0C" stop-opacity="0"/>
    </linearGradient>
    <linearGradient id="paint11_linear_238_271" x1="10.1021" y1="27.8994" x2="10.1021" y2="25.3364" gradientUnits="userSpaceOnUse">
      <stop stop-color="#BC2447"/>
      <stop offset="1" stop-color="#BC2447" stop-opacity="0"/>
    </linearGradient>
    <linearGradient id="paint12_linear_238_271" x1="4.10386" y1="22.5913" x2="2.50786" y2="24.4353" gradientUnits="userSpaceOnUse">
      <stop stop-color="#BD0663"/>
      <stop offset="1" stop-color="#C8166A"/>
    </linearGradient>
    <linearGradient id="paint13_linear_238_271" x1="24.1021" y1="19.5913" x2="24.1021" y2="27.0393" gradientUnits="userSpaceOnUse">
      <stop stop-color="#FF7233"/>
      <stop offset="1" stop-color="#EE3124"/>
    </linearGradient>
    <linearGradient id="paint14_linear_238_271" x1="18.1021" y1="23.6853" x2="19.9461" y2="23.6853" gradientUnits="userSpaceOnUse">
      <stop stop-color="#FF7B3D"/>
      <stop offset="1" stop-color="#FF7B3D" stop-opacity="0"/>
    </linearGradient>
    <linearGradient id="paint15_linear_238_271" x1="24.1021" y1="27.0393" x2="24.1021" y2="25.3413" gradientUnits="userSpaceOnUse">
      <stop stop-color="#BC2447"/>
      <stop offset="1" stop-color="#BC2447" stop-opacity="0"/>
    </linearGradient>
    <linearGradient id="paint16_linear_238_271" x1="18.1021" y1="22.6963" x2="18.3081" y2="22.6963" gradientUnits="userSpaceOnUse">
      <stop stop-color="#BC2303"/>
      <stop offset="1" stop-color="#BC2303" stop-opacity="0"/>
    </linearGradient>
    <linearGradient id="paint17_linear_238_271" x1="23.401" y1="22.6163" x2="23.401" y2="27.0393" gradientUnits="userSpaceOnUse">
      <stop stop-color="#99160C"/>
      <stop offset="1" stop-color="#AC0819"/>
    </linearGradient>
    <linearGradient id="paint18_linear_238_271" x1="8.60214" y1="22.6163" x2="8.60214" y2="27.0393" gradientUnits="userSpaceOnUse">
      <stop stop-color="#99160C"/>
      <stop offset="1" stop-color="#AC0819"/>
    </linearGradient>
    <linearGradient id="paint19_linear_238_271" x1="10.1729" y1="25.6566" x2="4.95994" y2="25.6566" gradientUnits="userSpaceOnUse">
      <stop offset="0.239" stop-color="#34214F"/>
      <stop offset="1" stop-color="#241337"/>
    </linearGradient>
    <radialGradient id="paint20_radial_238_271" cx="0" cy="0" r="1" gradientUnits="userSpaceOnUse" gradientTransform="translate(8.57294 26.2186) rotate(-114.463) scale(1.89393 1.97814)">
      <stop offset="0.523" stop-color="#2D114D"/>
      <stop offset="1" stop-color="#2B1249" stop-opacity="0"/>
    </radialGradient>
    <linearGradient id="paint21_linear_238_271" x1="25.0021" y1="25.6566" x2="19.7881" y2="25.6566" gradientUnits="userSpaceOnUse">
      <stop offset="0.239" stop-color="#34214F"/>
      <stop offset="1" stop-color="#241337"/>
    </linearGradient>
    <radialGradient id="paint22_radial_238_271" cx="0" cy="0" r="1" gradientUnits="userSpaceOnUse" gradientTransform="translate(23.4011 26.2186) rotate(-114.463) scale(1.89393 1.97814)">
      <stop offset="0.523" stop-color="#2D114D"/>
      <stop offset="1" stop-color="#2B1249" stop-opacity="0"/>
    </radialGradient>
    <linearGradient id="paint23_linear_238_271" x1="21.9391" y1="24.286" x2="24.8501" y2="28.307" gradientUnits="userSpaceOnUse">
      <stop offset="0.083" stop-color="#615B6B"/>
      <stop offset="0.391" stop-color="#615B6B" stop-opacity="0"/>
      <stop offset="0.692" stop-color="#615B6B" stop-opacity="0"/>
      <stop offset="0.935" stop-color="#615B6B"/>
    </linearGradient>
    <linearGradient id="paint24_linear_238_271" x1="7.06702" y1="24.286" x2="9.97902" y2="28.307" gradientUnits="userSpaceOnUse">
      <stop offset="0.083" stop-color="#615B6B"/>
      <stop offset="0.391" stop-color="#615B6B" stop-opacity="0"/>
      <stop offset="0.692" stop-color="#615B6B" stop-opacity="0"/>
      <stop offset="0.935" stop-color="#615B6B"/>
    </linearGradient>
  </defs>
</svg>