<svg xmlns="http://www.w3.org/2000/svg" width="25" height="24" viewBox="0 0 25 24" fill="none">
<g clip-path="url(#clip0_401_3862)">
<path d="M7.65025 21.7502C16.7046 21.7502 21.6584 14.2469 21.6584 7.74211C21.6584 7.53117 21.6537 7.31554 21.6443 7.1046C22.608 6.40771 23.4396 5.5445 24.1001 4.55554C23.2026 4.95484 22.2497 5.21563 21.274 5.32898C22.3014 4.71315 23.0706 3.74572 23.4392 2.60601C22.4726 3.1788 21.4157 3.58286 20.3135 3.80085C19.5709 3.01181 18.5891 2.48936 17.5198 2.3143C16.4505 2.13923 15.3533 2.32129 14.3978 2.83234C13.4424 3.34339 12.6819 4.15495 12.2339 5.14156C11.786 6.12816 11.6755 7.23486 11.9196 8.29054C9.96259 8.19233 8.04803 7.68395 6.30008 6.79834C4.55212 5.91274 3.00979 4.66968 1.77307 3.14976C1.1445 4.23349 0.952154 5.51589 1.23513 6.73634C1.5181 7.95678 2.25516 9.02369 3.2965 9.72023C2.51473 9.69541 1.75007 9.48492 1.06572 9.10617V9.1671C1.06502 10.3044 1.4582 11.4068 2.17841 12.287C2.89862 13.1672 3.90142 13.7708 5.01635 13.9952C4.29215 14.1934 3.53208 14.2222 2.79494 14.0796C3.10955 15.0577 3.72167 15.9131 4.54587 16.5266C5.37007 17.14 6.36522 17.4808 7.39244 17.5015C5.64852 18.8714 3.49427 19.6144 1.27666 19.6109C0.883385 19.6103 0.490497 19.5861 0.100098 19.5387C2.35295 20.984 4.97363 21.7516 7.65025 21.7502Z" fill="#0080FF"/>
</g>
<defs>
<clipPath id="clip0_401_3862">
<rect width="24" height="24" fill="white" transform="translate(0.100098)"/>
</clipPath>
</defs>
</svg>