<svg width="24" height="25" viewBox="0 0 24 25" fill="none" xmlns="http://www.w3.org/2000/svg">
<g id="user-tick">
<path id="Vector" d="M12 13.25C8.83 13.25 6.25 10.67 6.25 7.5C6.25 4.33 8.83 1.75 12 1.75C15.17 1.75 17.75 4.33 17.75 7.5C17.75 10.67 15.17 13.25 12 13.25ZM12 3.25C9.66 3.25 7.75 5.16 7.75 7.5C7.75 9.84 9.66 11.75 12 11.75C14.34 11.75 16.25 9.84 16.25 7.5C16.25 5.16 14.34 3.25 12 3.25Z" fill="#26334D"/>
<path id="Vector_2" d="M3.75 23C3.34 23 3 22.66 3 22.25C3 17.98 7.19 14.5 12.34 14.5C13.35 14.5 14.34 14.63 15.3 14.9C15.7 15.01 15.93 15.42 15.82 15.82C15.71 16.22 15.3 16.45 14.9 16.34C14.08 16.11 13.22 16 12.34 16C8.02 16 4.5 18.8 4.5 22.25C4.5 22.66 4.16 23 3.75 23Z" fill="#26334D"/>
<path id="Vector_3" d="M18 23.25C16.34 23.25 14.78 22.37 13.94 20.94C13.49 20.22 13.25 19.37 13.25 18.5C13.25 17.04 13.9 15.69 15.03 14.79C15.87 14.12 16.93 13.75 18 13.75C20.62 13.75 22.75 15.88 22.75 18.5C22.75 19.37 22.51 20.22 22.06 20.95C21.81 21.37 21.49 21.75 21.11 22.07C20.28 22.83 19.17 23.25 18 23.25ZM18 15.25C17.26 15.25 16.56 15.5 15.97 15.97C15.2 16.58 14.75 17.51 14.75 18.5C14.75 19.09 14.91 19.67 15.22 20.17C15.8 21.15 16.87 21.75 18 21.75C18.79 21.75 19.55 21.46 20.13 20.94C20.39 20.72 20.61 20.46 20.77 20.18C21.09 19.67 21.25 19.09 21.25 18.5C21.25 16.71 19.79 15.25 18 15.25Z" fill="#26334D"/>
<path id="Vector_4" d="M17.4299 20.2396C17.2399 20.2396 17.0499 20.1696 16.8999 20.0196L15.9099 19.0296C15.6199 18.7396 15.6199 18.2595 15.9099 17.9695C16.1999 17.6795 16.6799 17.6795 16.9699 17.9695L17.4499 18.4496L19.0499 16.9695C19.3499 16.6895 19.8299 16.7096 20.1099 17.0096C20.3899 17.3096 20.3699 17.7896 20.0699 18.0696L17.9399 20.0396C17.7899 20.1696 17.6099 20.2396 17.4299 20.2396Z" fill="#26334D"/>
</g>
</svg>
