<svg xmlns="http://www.w3.org/2000/svg" width="36" height="36" viewBox="0 0 36 36" fill="none">
  <g clip-path="url(#clip0_238_155)">
    <path d="M15.898 34.8747H14.533C14.533 34.8747 13.263 31.5267 13.459 29.1387L16.26 29.6877C16.786 31.2587 15.898 34.8747 15.898 34.8747ZM20.042 34.8747H21.407C21.407 34.8747 22.677 31.5267 22.481 29.1387L19.68 29.6877C19.154 31.2587 20.042 34.8747 20.042 34.8747Z" fill="#D4AB88"/>
    <path d="M13.7922 35.1487C13.8942 34.9057 14.1102 34.4547 14.1332 34.1937C14.1562 33.9327 14.1672 33.8397 14.3732 33.7677C14.7202 33.6467 15.8092 33.6807 15.9962 33.7517C16.1822 33.8227 16.1852 34.0147 16.2122 34.1757C16.2392 34.3367 16.3262 34.5997 16.4392 34.8157C16.5532 35.0317 16.8482 35.5127 16.7002 35.8497C16.6382 35.9897 16.2952 35.9877 15.1932 35.9877C14.0912 35.9877 13.7762 35.9617 13.7012 35.8697C13.6262 35.7777 13.6902 35.3927 13.7922 35.1487ZM22.1482 35.1487C22.0462 34.9057 21.8302 34.4547 21.8072 34.1937C21.7842 33.9327 21.7732 33.8397 21.5672 33.7677C21.2202 33.6467 20.1312 33.6807 19.9442 33.7517C19.7572 33.8227 19.7552 34.0147 19.7282 34.1757C19.7012 34.3367 19.6142 34.5997 19.5012 34.8157C19.3882 35.0317 19.0922 35.5127 19.2402 35.8497C19.3022 35.9897 19.6452 35.9877 20.7472 35.9877C21.8492 35.9877 22.1642 35.9617 22.2392 35.8697C22.3142 35.7777 22.2502 35.3927 22.1482 35.1487Z" fill="#FA743E"/>
    <path d="M8.64599 4.14568C8.65699 4.27268 9.51699 5.68068 9.96899 6.78068C10.421 7.88068 10.679 8.97868 10.917 9.22868C11.393 9.72768 13.009 11.1077 14.034 12.5717C15.059 14.0357 14.758 15.0747 14.094 15.4937C13.214 16.0487 12.291 15.6977 11.657 14.7057C10.7174 13.188 9.80427 11.6541 8.91799 10.1047C8.45805 9.27326 8.05124 8.41354 7.69999 7.53068C7.30299 6.53068 7.25599 5.36268 7.19599 5.21868C7.02199 4.79368 6.07599 4.24168 6.04199 3.81168C6.04199 3.81168 8.60899 3.71668 8.64599 4.14568ZM27.354 4.14568C27.343 4.27268 26.483 5.68068 26.031 6.78068C25.579 7.88068 25.321 8.97868 25.083 9.22868C24.607 9.72768 22.991 11.1077 21.966 12.5717C20.941 14.0357 21.242 15.0747 21.906 15.4937C22.786 16.0487 23.709 15.6977 24.343 14.7057C24.794 13.9997 26.294 11.4967 27.082 10.1047C27.5409 9.27325 27.9474 8.4139 28.299 7.53168C28.696 6.53168 28.743 5.36368 28.803 5.21968C28.978 4.79468 29.924 4.24268 29.958 3.81368C29.958 3.81168 27.391 3.71668 27.354 4.14568Z" fill="#D4AB88"/>
    <path d="M36 3.5C36 3.63261 35.9473 3.75979 35.8536 3.85355C35.7598 3.94732 35.6326 4 35.5 4H0.5C0.367392 4 0.240215 3.94732 0.146447 3.85355C0.0526784 3.75979 0 3.63261 0 3.5C0 3.36739 0.0526784 3.24021 0.146447 3.14645C0.240215 3.05268 0.367392 3 0.5 3H35.5C35.6326 3 35.7598 3.05268 35.8536 3.14645C35.9473 3.24021 36 3.36739 36 3.5Z" fill="#99AAB5"/>
    <path d="M34 0C33.7348 0 33.4804 0.105357 33.2929 0.292893C33.1054 0.48043 33 0.734784 33 1C33 0.734784 32.8946 0.48043 32.7071 0.292893C32.5196 0.105357 32.2652 0 32 0C31.7348 0 31.4804 0.105357 31.2929 0.292893C31.1054 0.48043 31 0.734784 31 1V6C31 6.26522 31.1054 6.51957 31.2929 6.70711C31.4804 6.89464 31.7348 7 32 7C32.2652 7 32.5196 6.89464 32.7071 6.70711C32.8946 6.51957 33 6.26522 33 6C33 6.26522 33.1054 6.51957 33.2929 6.70711C33.4804 6.89464 33.7348 7 34 7C34.2652 7 34.5196 6.89464 34.7071 6.70711C34.8946 6.51957 35 6.26522 35 6V1C35 0.734784 34.8946 0.48043 34.7071 0.292893C34.5196 0.105357 34.2652 0 34 0ZM4 0C3.73478 0 3.48043 0.105357 3.29289 0.292893C3.10536 0.48043 3 0.734784 3 1C3 0.734784 2.89464 0.48043 2.70711 0.292893C2.51957 0.105357 2.26522 0 2 0C1.73478 0 1.48043 0.105357 1.29289 0.292893C1.10536 0.48043 1 0.734784 1 1V6C1 6.26522 1.10536 6.51957 1.29289 6.70711C1.48043 6.89464 1.73478 7 2 7C2.26522 7 2.51957 6.89464 2.70711 6.70711C2.89464 6.51957 3 6.26522 3 6C3 6.26522 3.10536 6.51957 3.29289 6.70711C3.48043 6.89464 3.73478 7 4 7C4.26522 7 4.51957 6.89464 4.70711 6.70711C4.89464 6.51957 5 6.26522 5 6V1C5 0.734784 4.89464 0.48043 4.70711 0.292893C4.51957 0.105357 4.26522 0 4 0Z" fill="#292F33"/>
    <path d="M22.1721 12.2861C21.4301 12.7051 20.8891 13.5431 20.6801 13.9031C20.0151 14.0201 19.5291 14.2031 19.5291 14.2031H16.4701C16.4701 14.2031 15.9841 14.0201 15.3191 13.9031C15.1101 13.5431 14.5691 12.7061 13.8271 12.2861C13.8271 12.2861 11.7061 13.2231 11.0811 13.8071C11.2911 14.3441 11.5731 14.8541 11.7971 15.2241C12.1971 16.3161 13.2991 17.7511 13.4231 18.0011C13.8121 18.7811 14.1641 22.5011 14.1641 22.5011L18.0001 24.0001L21.8351 22.5001C21.8351 22.5001 22.1871 18.7801 22.5761 18.0001C22.7011 17.7501 23.8031 16.3151 24.2021 15.2231C24.4261 14.8531 24.7081 14.3441 24.9181 13.8061C24.2931 13.2231 22.1721 12.2861 22.1721 12.2861Z" fill="#FA743E"/>
    <path d="M27.096 4.36251C26.766 4.20551 26.62 3.93451 26.719 3.64351L26.722 3.63351C26.821 3.34251 27.013 3.28751 27.46 3.29451C27.46 3.29451 28.981 3.37051 29.897 4.00651C29.897 4.00651 29.441 4.31051 29.198 4.56651V4.57651C29.013 5.11751 27.304 4.46151 27.096 4.36251Z" fill="#D4AB88"/>
    <path d="M27.8429 3.46994C27.777 3.45361 27.7202 3.41183 27.6849 3.35374C27.6497 3.29565 27.6389 3.22597 27.6549 3.15994L27.7419 2.80294C27.7749 2.66594 27.9149 2.58194 28.0519 2.61494C28.1889 2.64794 28.2729 2.78794 28.2399 2.92494L28.1529 3.28194C28.1363 3.34775 28.0945 3.40438 28.0365 3.43957C27.9785 3.47476 27.9089 3.48567 27.8429 3.46994ZM27.3979 2.59994C27.3191 2.57386 27.2332 2.57993 27.1589 2.61681C27.0846 2.6537 27.0278 2.71843 27.0009 2.79694L26.7219 3.63394C26.6669 3.79794 26.8899 3.56594 27.0539 3.62094C27.1325 3.64734 27.2184 3.64154 27.2928 3.60482C27.3672 3.5681 27.424 3.50343 27.4509 3.42494L27.5949 2.99794C27.621 2.91903 27.615 2.833 27.5781 2.7585C27.5412 2.68401 27.4765 2.62704 27.3979 2.59994Z" fill="#D4AB88"/>
    <path d="M28.3842 3.39874C28.3182 3.38241 28.2614 3.34063 28.2262 3.28254C28.191 3.22445 28.1802 3.15477 28.1962 3.08874L28.2782 2.75474C28.3112 2.61774 28.4512 2.53374 28.5882 2.56674C28.7252 2.59974 28.8092 2.73974 28.7762 2.87674L28.6942 3.21074C28.6776 3.27655 28.6358 3.33318 28.5778 3.36837C28.5198 3.40356 28.4502 3.41447 28.3842 3.39874Z" fill="#D4AB88"/>
    <path d="M28.8998 3.42377C28.8339 3.40744 28.7771 3.36567 28.7418 3.30757C28.7066 3.24948 28.6958 3.1798 28.7118 3.11377L28.7798 2.83677C28.8128 2.69977 28.9528 2.61577 29.0898 2.64877C29.2268 2.68177 29.3108 2.82177 29.2778 2.95877L29.2098 3.23577C29.1933 3.30158 29.1514 3.35821 29.0934 3.3934C29.0354 3.42859 28.9658 3.4395 28.8998 3.42377Z" fill="#D4AB88"/>
    <path d="M29.4189 3.44647C29.3529 3.43014 29.2961 3.38836 29.2609 3.33027C29.2257 3.27218 29.2149 3.2025 29.2309 3.13647L29.2709 2.97447C29.3039 2.83747 29.4439 2.75347 29.5809 2.78647C29.7179 2.81947 29.8019 2.95947 29.7689 3.09647L29.7289 3.25847C29.7125 3.32442 29.6708 3.38122 29.6127 3.41645C29.5546 3.45168 29.4849 3.46247 29.4189 3.44647Z" fill="#D4AB88"/>
    <path d="M8.90403 4.3625C9.23403 4.2055 9.38003 3.9345 9.28103 3.6435L9.27803 3.6335C9.17903 3.3435 8.98703 3.2875 8.54003 3.2945C8.54003 3.2945 7.01903 3.3705 6.10303 4.0065C6.10303 4.0065 6.55703 4.3205 6.80503 4.5765C6.90303 4.8665 8.16703 4.7135 8.90403 4.3625Z" fill="#D4AB88"/>
    <path d="M8.15696 3.46994C8.22291 3.45361 8.27971 3.41183 8.31494 3.35374C8.35017 3.29565 8.36096 3.22597 8.34496 3.15994L8.25796 2.80294C8.24163 2.73699 8.19985 2.68019 8.14176 2.64496C8.08366 2.60973 8.01399 2.59894 7.94796 2.61494C7.88215 2.63151 7.82552 2.67333 7.79033 2.73135C7.75514 2.78938 7.74423 2.85893 7.75996 2.92494L7.84696 3.28194C7.86352 3.34775 7.90534 3.40438 7.96337 3.43957C8.02139 3.47476 8.09094 3.48567 8.15696 3.46994ZM8.60196 2.59994C8.68074 2.57386 8.76663 2.57993 8.84096 2.61681C8.9153 2.6537 8.97207 2.71843 8.99896 2.79694L9.27796 3.63394C9.33296 3.79794 9.10996 3.56594 8.94596 3.62094C8.86731 3.64734 8.78142 3.64154 8.70703 3.60482C8.63265 3.5681 8.57582 3.50343 8.54896 3.42494L8.40496 2.99794C8.37885 2.91903 8.38488 2.833 8.42176 2.7585C8.45863 2.68401 8.52337 2.62704 8.60196 2.59994Z" fill="#D4AB88"/>
    <path d="M7.61606 3.3988C7.68201 3.38247 7.73881 3.34069 7.77404 3.2826C7.80927 3.22451 7.82006 3.15483 7.80406 3.0888L7.72206 2.7548C7.70573 2.68885 7.66395 2.63205 7.60586 2.59682C7.54777 2.56159 7.47809 2.5508 7.41206 2.5668C7.3463 2.58335 7.28974 2.62522 7.25471 2.68329C7.21968 2.74135 7.20903 2.81091 7.22506 2.8768L7.30706 3.2108C7.32317 3.27667 7.36475 3.33347 7.42268 3.36871C7.48061 3.40396 7.55016 3.41478 7.61606 3.3988Z" fill="#D4AB88"/>
    <path d="M7.10026 3.42348C7.1662 3.40715 7.223 3.36537 7.25823 3.30728C7.29346 3.24919 7.30426 3.17951 7.28826 3.11348L7.22026 2.83648C7.21312 2.80295 7.19931 2.77119 7.17967 2.74309C7.16002 2.71499 7.13493 2.69113 7.10589 2.67291C7.07684 2.6547 7.04443 2.6425 7.01058 2.63705C6.97673 2.63159 6.94213 2.633 6.90884 2.64117C6.87554 2.64934 6.84423 2.66412 6.81675 2.68463C6.78927 2.70514 6.7662 2.73095 6.74889 2.76055C6.73158 2.79014 6.72039 2.82291 6.71599 2.85691C6.71158 2.89092 6.71406 2.92545 6.72326 2.95848L6.79126 3.23548C6.80736 3.30135 6.84894 3.35815 6.90687 3.39339C6.9648 3.42864 7.03435 3.43946 7.10026 3.42348Z" fill="#D4AB88"/>
    <path d="M6.58113 3.44632C6.64707 3.43 6.70387 3.38822 6.7391 3.33012C6.77433 3.27203 6.78513 3.20235 6.76913 3.13632L6.73013 2.97432C6.71356 2.90852 6.67174 2.85188 6.61371 2.81669C6.55569 2.78151 6.48614 2.77059 6.42013 2.78632C6.35432 2.80289 6.29768 2.84471 6.2625 2.90274C6.22731 2.96076 6.2164 3.03031 6.23213 3.09632L6.27213 3.25832C6.28823 3.3242 6.32981 3.38099 6.38774 3.41624C6.44567 3.45148 6.51522 3.4623 6.58113 3.44632Z" fill="#D4AB88"/>
    <path d="M21.8402 24.5L18.0002 23L14.1602 24.5C14.1602 24.5 13.3402 26.417 13.2002 29.688H16.2602C17.1402 28.709 17.4602 26.084 17.4602 26.084H18.5402C18.5402 26.084 18.8602 28.709 19.7402 29.688H22.8002C22.6602 26.417 21.8402 24.5 21.8402 24.5Z" fill="#DD551F"/>
    <path d="M14.1362 22.5H21.8652V24.5H14.1362V22.5Z" fill="#C1694F"/>
    <path d="M19 22.3994H19.65V24.6084H19V22.3994Z" fill="#14171A"/>
    <path d="M18.5 23.625C18.5922 23.625 18.667 23.5502 18.667 23.458C18.667 23.3658 18.5922 23.291 18.5 23.291C18.4078 23.291 18.333 23.3658 18.333 23.458C18.333 23.5502 18.4078 23.625 18.5 23.625Z" fill="#14171A"/>
    <path d="M18.021 23.458C18.021 23.5023 18.0034 23.5448 17.9721 23.5761C17.9408 23.6074 17.8983 23.625 17.854 23.625C17.8097 23.625 17.7672 23.6074 17.7359 23.5761C17.7046 23.5448 17.687 23.5023 17.687 23.458C17.687 23.4137 17.7046 23.3712 17.7359 23.3399C17.7672 23.3086 17.8097 23.291 17.854 23.291C17.8983 23.291 17.9408 23.3086 17.9721 23.3399C18.0034 23.3712 18.021 23.4137 18.021 23.458Z" fill="#14171A"/>
    <path d="M17.208 23.625C17.3002 23.625 17.375 23.5502 17.375 23.458C17.375 23.3658 17.3002 23.291 17.208 23.291C17.1158 23.291 17.041 23.3658 17.041 23.458C17.041 23.5502 17.1158 23.625 17.208 23.625Z" fill="#14171A"/>
    <path d="M16.562 23.625C16.6543 23.625 16.729 23.5502 16.729 23.458C16.729 23.3658 16.6543 23.291 16.562 23.291C16.4698 23.291 16.395 23.3658 16.395 23.458C16.395 23.5502 16.4698 23.625 16.562 23.625Z" fill="#14171A"/>
    <path d="M15.917 23.625C16.0092 23.625 16.084 23.5502 16.084 23.458C16.084 23.3658 16.0092 23.291 15.917 23.291C15.8248 23.291 15.75 23.3658 15.75 23.458C15.75 23.5502 15.8248 23.625 15.917 23.625Z" fill="#14171A"/>
    <path d="M15.271 23.625C15.3632 23.625 15.438 23.5502 15.438 23.458C15.438 23.3658 15.3632 23.291 15.271 23.291C15.1788 23.291 15.104 23.3658 15.104 23.458C15.104 23.5502 15.1788 23.625 15.271 23.625Z" fill="#14171A"/>
    <path d="M14.625 23.625C14.7172 23.625 14.792 23.5502 14.792 23.458C14.792 23.3658 14.7172 23.291 14.625 23.291C14.5328 23.291 14.458 23.3658 14.458 23.458C14.458 23.5502 14.5328 23.625 14.625 23.625Z" fill="#14171A"/>
    <path d="M17.208 23.625C17.3002 23.625 17.375 23.5502 17.375 23.458C17.375 23.3658 17.3002 23.291 17.208 23.291C17.1158 23.291 17.041 23.3658 17.041 23.458C17.041 23.5502 17.1158 23.625 17.208 23.625Z" fill="#14171A"/>
    <path d="M16.5528 23.6056C16.6345 23.6056 16.7008 23.5393 16.7008 23.4576C16.7008 23.3758 16.6345 23.3096 16.5528 23.3096C16.471 23.3096 16.4048 23.3758 16.4048 23.4576C16.4048 23.5393 16.471 23.6056 16.5528 23.6056Z" fill="#657786"/>
    <path d="M16.3179 23.3096H16.5529V23.6066H16.3179V23.3096Z" fill="#657786"/>
    <path d="M16.7292 24.8464H15.9712V22.1494H16.7292V22.4994H16.3202V24.4964H16.7292V24.8464Z" fill="#657786"/>
    <path d="M19.5908 3.84C18.7678 3.574 16.8328 3.646 16.3488 4.276C15.0908 4.3 13.6148 5.437 13.4208 6.937C13.2288 8.422 13.6558 9.111 13.8078 10.228C13.9798 11.493 14.6908 11.897 15.2598 12.067C16.0778 13.148 16.9478 13.101 18.4068 13.101C21.2578 13.101 22.6158 11.193 22.7358 7.953C22.8088 5.993 21.6588 4.509 19.5908 3.84Z" fill="#963B22"/>
    <path d="M16.7778 12.2861V14.7301C16.7778 14.8906 16.8094 15.0495 16.8709 15.1978C16.9323 15.346 17.0223 15.4807 17.1357 15.5942C17.2492 15.7077 17.3839 15.7977 17.5322 15.8591C17.6805 15.9205 17.8394 15.9521 17.9998 15.9521C18.1603 15.9521 18.3192 15.9205 18.4675 15.8591C18.6157 15.7977 18.7504 15.7077 18.8639 15.5942C18.9774 15.4807 19.0674 15.346 19.1288 15.1978C19.1902 15.0495 19.2218 14.8906 19.2218 14.7301V12.2861H16.7778Z" fill="#D4AB88"/>
    <path d="M21.2212 8.09138C20.9452 7.70938 20.5922 7.40138 19.8182 7.29338C20.1082 7.42638 20.3872 7.88638 20.4232 8.14038C20.4592 8.39438 20.4962 8.60038 20.2662 8.34638C19.3452 7.32838 18.3422 7.72938 17.3492 7.10738C16.6552 6.67338 16.4442 6.19238 16.4442 6.19238C16.4442 6.19238 16.3592 6.83338 15.3072 7.48638C15.0022 7.67538 14.6382 8.09738 14.4362 8.72038C14.2912 9.16838 14.3362 9.56738 14.3362 10.2494C14.3362 12.2404 15.9772 13.9154 18.0022 13.9154C20.0272 13.9154 21.6682 12.2264 21.6682 10.2494C21.6662 9.01138 21.5362 8.52738 21.2212 8.09138Z" fill="#D4AB88"/>
    <path d="M19.6291 12.2864H16.3711C16.3711 12.2864 16.7781 13.1004 18.0001 13.1004C19.2221 13.1004 19.6291 12.2864 19.6291 12.2864ZM18.4071 11.2674H17.5921C17.538 11.2674 17.4861 11.2459 17.4478 11.2076C17.4096 11.1694 17.3881 11.1175 17.3881 11.0634C17.3881 11.0093 17.4096 10.9574 17.4478 10.9191C17.4861 10.8809 17.538 10.8594 17.5921 10.8594H18.4071C18.4612 10.8594 18.5131 10.8809 18.5513 10.9191C18.5896 10.9574 18.6111 11.0093 18.6111 11.0634C18.6111 11.1175 18.5896 11.1694 18.5513 11.2076C18.5131 11.2459 18.4612 11.2674 18.4071 11.2674Z" fill="#C1694F"/>
    <path d="M16.3709 9.84212C16.2629 9.84212 16.1594 9.79924 16.0831 9.72291C16.0067 9.64658 15.9639 9.54306 15.9639 9.43512V9.02712C15.9639 8.91917 16.0067 8.81565 16.0831 8.73932C16.1594 8.663 16.2629 8.62012 16.3709 8.62012C16.4788 8.62012 16.5823 8.663 16.6587 8.73932C16.735 8.81565 16.7779 8.91917 16.7779 9.02712V9.43412C16.778 9.48765 16.7676 9.54068 16.7472 9.59018C16.7268 9.63967 16.6968 9.68466 16.659 9.72256C16.6212 9.76046 16.5763 9.79052 16.5269 9.81104C16.4774 9.83156 16.4244 9.84212 16.3709 9.84212ZM19.6289 9.84212C19.5209 9.84212 19.4174 9.79924 19.3411 9.72291C19.2647 9.64658 19.2219 9.54306 19.2219 9.43512V9.02712C19.2219 8.97367 19.2324 8.92075 19.2528 8.87137C19.2733 8.82199 19.3033 8.77712 19.3411 8.73932C19.3789 8.70153 19.4237 8.67155 19.4731 8.6511C19.5225 8.63064 19.5754 8.62012 19.6289 8.62012C19.6823 8.62012 19.7352 8.63064 19.7846 8.6511C19.834 8.67155 19.8789 8.70153 19.9167 8.73932C19.9545 8.77712 19.9844 8.82199 20.0049 8.87137C20.0253 8.92075 20.0359 8.97367 20.0359 9.02712V9.43412C20.036 9.48765 20.0256 9.54068 20.0052 9.59018C19.9848 9.63967 19.9548 9.68466 19.917 9.72256C19.8792 9.76046 19.8343 9.79052 19.7849 9.81104C19.7354 9.83156 19.6824 9.84212 19.6289 9.84212Z" fill="#662113"/>
  </g>
  <defs>
    <clipPath id="clip0_238_155">
      <rect width="36" height="36" fill="white"/>
    </clipPath>
  </defs>
</svg>